<?xml version="1.0" encoding="UTF-8"?>
<svg version="1.1" xmlns="http://www.w3.org/2000/svg" width="1000" height="1000">
<path d="M0 0 C330 0 660 0 1000 0 C1000 330 1000 660 1000 1000 C670 1000 340 1000 0 1000 C0 670 0 340 0 0 Z " fill="#FEFEFE" transform="translate(0,0)"/>
<path d="M0 0 C3 1 3 1 4.63476562 3.77783203 C5.23576245 5.01611653 5.82544898 6.25992794 6.40625 7.5078125 C6.88774506 8.51060745 6.88774506 8.51060745 7.37896729 9.53366089 C8.42897422 11.72630756 9.46445527 13.92549113 10.5 16.125 C11.22464388 17.64498073 11.95023587 19.1645098 12.67675781 20.68359375 C14.12661601 23.71909013 15.57089426 26.75713201 17.00976562 29.79785156 C19.13980747 34.29907683 21.29129595 38.78986327 23.44555664 43.27954102 C24.74181936 45.982939 26.03368289 48.68839527 27.32421875 51.39453125 C30.39430005 57.83000533 33.4776734 64.25908363 36.5625 70.6875 C37.07586914 71.75806641 37.58923828 72.82863281 38.11816406 73.93164062 C38.59608398 74.92744141 39.07400391 75.92324219 39.56640625 76.94921875 C40.19977905 78.26925903 40.19977905 78.26925903 40.84594727 79.6159668 C41.5819173 81.13632801 42.34795372 82.64274477 43.15209961 84.12817383 C44 86 44 86 44 89 C44.66 89 45.32 89 46 89 C46.33 87.68 46.66 86.36 47 85 C50.17121466 85.49550229 52.64985279 86.28010896 55.625 87.5625 C61.66442664 89.88888256 68.12213893 90.07214432 74.1875 87.8125 C76.28976591 86.11854216 76.28976591 86.11854216 76.11328125 83.38671875 C76.05720703 82.20529297 76.05720703 82.20529297 76 81 C71.05796867 78.43434969 66.17961137 76.01775607 60.9375 74.125 C54.25940283 71.5022142 48.76293966 67.83138795 44.9375 61.6875 C43.58276071 56.3588588 42.75691403 51.2458356 44.7734375 45.98046875 C48.06127587 40.62898715 53.03455623 37.63486583 59 36 C68.00428936 34.88648594 78.76508343 34.75600045 87 39 C87.33 39.66 87.66 40.32 88 41 C87.00390625 43.3828125 87.00390625 43.3828125 85.5625 46.125 C84.85287109 47.49011719 84.85287109 47.49011719 84.12890625 48.8828125 C83.75636719 49.58148438 83.38382813 50.28015625 83 51 C82.16984375 50.67386719 81.3396875 50.34773438 80.484375 50.01171875 C76.57939121 48.87787256 73.30929792 48.7683772 69.25 48.8125 C67.93515625 48.81894531 66.6203125 48.82539063 65.265625 48.83203125 C62.11526817 48.77541646 62.11526817 48.77541646 60 50 C60 52.31 60 54.62 60 57 C63.90442661 59.03355553 67.79648325 60.93887604 71.8828125 62.578125 C86.81898707 68.63797415 86.81898707 68.63797415 91 77 C91.72218508 84.13897709 91.44960235 89.26235486 87 95 C80.03755553 100.60022708 73.54214266 101.30709635 64.9375 101.1875 C63.61008789 101.1865332 63.61008789 101.1865332 62.25585938 101.18554688 C58.00028468 101.15681456 54.17255506 100.83451101 50 100 C46.89488178 99.87679562 43.79441638 99.90562162 40.6875 99.9375 C39.85154297 99.94201172 39.01558594 99.94652344 38.15429688 99.95117188 C36.10283351 99.96289452 34.05140727 99.98082797 32 100 C30.66065284 97.04435292 29.32955753 94.0850622 28 91.125 C27.6184375 90.28324219 27.236875 89.44148437 26.84375 88.57421875 C26.4828125 87.76855469 26.121875 86.96289062 25.75 86.1328125 C25.41484375 85.38918457 25.0796875 84.64555664 24.734375 83.87939453 C24 82 24 82 24 80 C8.82 80.33 -6.36 80.66 -22 81 C-24.64 86.94 -27.28 92.88 -30 99 C-31 100 -31 100 -33.43605042 100.12025452 C-34.51748825 100.11803391 -35.59892609 100.11581329 -36.71313477 100.11352539 C-37.9343251 100.11344986 -39.15551544 100.11337433 -40.41371155 100.11329651 C-41.75627686 100.10818911 -43.09884175 100.10297311 -44.44140625 100.09765625 C-45.80761158 100.09579199 -47.17381757 100.09436813 -48.5400238 100.09336853 C-52.14201695 100.08954394 -55.74397 100.07971417 -59.34594727 100.06866455 C-63.01903745 100.05844916 -66.69213409 100.05387064 -70.36523438 100.04882812 C-77.57684123 100.03809184 -84.788415 100.02101614 -92 100 C-87.53780054 92.09904133 -83.02814673 84.26342578 -78.125 76.625 C-77.09986286 75.01587821 -76.0751309 73.40649822 -75.05078125 71.796875 C-74.54498535 71.00345703 -74.03918945 70.21003906 -73.51806641 69.39257812 C-70.65823263 64.88528141 -67.84513475 60.34863386 -65.03369141 55.81103516 C-62.10766602 51.10766602 -62.10766602 51.10766602 -61 50 C-69.25 49.67 -77.5 49.34 -86 49 C-86 45.04 -86 41.08 -86 37 C-70.16 37 -54.32 37 -38 37 C-39.6340599 41.9021797 -41.37375934 45.52113799 -44.125 49.75 C-45.0143063 51.14371185 -45.90221966 52.53831306 -46.7890625 53.93359375 C-47.28825195 54.71718262 -47.78744141 55.50077148 -48.30175781 56.30810547 C-51.75236358 61.77768269 -55.11884939 67.29981641 -58.5 72.8125 C-59.88469173 75.06945758 -61.27024955 77.32587641 -62.65625 79.58203125 C-63.25244141 80.55374268 -63.84863281 81.5254541 -64.46289062 82.52661133 C-65.60949374 84.37162978 -66.79503695 86.19255543 -68 88 C-59.42 88 -50.84 88 -42 88 C-41.34 86.02 -40.68 84.04 -40 82 C-39.44172825 80.71424369 -38.85581099 79.43991242 -38.23510742 78.18310547 C-37.8963559 77.49211761 -37.55760437 76.80112976 -37.20858765 76.08920288 C-36.66254379 74.98930527 -36.66254379 74.98930527 -36.10546875 73.8671875 C-35.72162018 73.08550201 -35.33777161 72.30381653 -34.94229126 71.4984436 C-34.12005417 69.82415592 -33.29627812 68.15062328 -32.47109985 66.4777832 C-26.09769257 53.55428733 -19.81658303 40.59932071 -13.8125 27.5 C-9.52069717 18.14521102 -5.05013706 8.97124045 0 0 Z " fill="#040482" transform="translate(456,438)"/>
<path d="M0 0 C45.92537313 0 45.92537313 0 54.8515625 7.5703125 C60.13874663 13.37840147 62.60707151 19.51540913 62.35546875 27.375 C61.46544831 33.94745865 58.71354864 40.28645136 54 45 C52.68252676 45.69748583 51.35085807 46.36959957 50 47 C50.65226562 47.27972656 51.30453125 47.55945313 51.9765625 47.84765625 C58.89753804 51.02232202 63.76292747 54.37928812 67.1328125 61.33984375 C69.77405746 69.44204112 68.33291705 78.51712895 65.3828125 86.3359375 C61.75808667 93.31916636 55.72023405 96.54466916 48.58984375 99.2734375 C33.48955901 103.50971648 13.19660368 101 0 101 C0 67.67 0 34.34 0 0 Z " fill="#070783" transform="translate(275,437)"/>
<path d="M0 0 C-0.54339792 4.56454251 -1.79463821 7.9728176 -4 12 C-5.03125 11.67 -6.0625 11.34 -7.125 11 C-13.25693792 9.45598686 -19.72575373 9.44009351 -26 10 C-28.29102513 11.86321004 -28.29102513 11.86321004 -28.25 14.8125 C-26.52184321 19.21929981 -24.16168106 19.9004933 -19.96484375 21.78515625 C-17.9400091 22.61483158 -15.91114539 23.43472418 -13.87890625 24.24609375 C-6.7737153 27.09349237 -1.54865404 29.26197407 2.875 35.75 C4.74966054 41.165686 4.74966054 45.834314 2.875 51.25 C-0.82105986 56.6708878 -5.73916759 60.11593942 -12 62 C-15.26045549 62.4365802 -18.46378158 62.47606991 -21.75 62.4375 C-22.63018799 62.43137695 -23.51037598 62.42525391 -24.41723633 62.41894531 C-30.85644895 62.26465582 -37.56767917 61.81794349 -43 58 C-44.23296441 55.44754736 -44.11075677 54.33616629 -43.22265625 51.640625 C-42.83980469 50.85171875 -42.45695313 50.0628125 -42.0625 49.25 C-41.68222656 48.45078125 -41.30195312 47.6515625 -40.91015625 46.828125 C-40.60980469 46.22484375 -40.30945313 45.6215625 -40 45 C-39.39671875 45.27714844 -38.7934375 45.55429687 -38.171875 45.83984375 C-37.37265625 46.20207031 -36.5734375 46.56429687 -35.75 46.9375 C-34.96109375 47.29714844 -34.1721875 47.65679688 -33.359375 48.02734375 C-29.31625612 49.6941262 -25.87594393 50.15744544 -21.5 50.1875 C-20.5615625 50.20167969 -19.623125 50.21585938 -18.65625 50.23046875 C-15.94005663 49.99479903 -14.32084954 49.38484654 -12 48 C-11.66602213 45.12586875 -11.66602213 45.12586875 -12 42 C-15.173371 38.90596327 -19.16798491 37.68005634 -23.25 36.1875 C-30.88632305 33.26447909 -37.3025766 29.93814835 -42 23 C-43.9151256 17.25462321 -43.96365787 11.1682302 -41.5 5.625 C-30.95406839 -5.44822819 -13.57083138 -5.72839114 0 0 Z " fill="#050582" transform="translate(592,477)"/>
<path d="M0 0 C1.21386936 3.64160808 0.6674695 4.33165469 -0.9375 7.6875 C-1.31777344 8.49574219 -1.69804688 9.30398438 -2.08984375 10.13671875 C-2.39019531 10.75160156 -2.69054687 11.36648438 -3 12 C-4.03125 11.67 -5.0625 11.34 -6.125 11 C-12.25693792 9.45598686 -18.72575373 9.44009351 -25 10 C-27.29102513 11.86321004 -27.29102513 11.86321004 -27.25 14.8125 C-25.52184321 19.21929981 -23.16168106 19.9004933 -18.96484375 21.78515625 C-16.9400091 22.61483158 -14.91114539 23.43472418 -12.87890625 24.24609375 C-5.7737153 27.09349237 -0.54865404 29.26197407 3.875 35.75 C5.74966054 41.165686 5.74966054 45.834314 3.875 51.25 C0.17894014 56.6708878 -4.73916759 60.11593942 -11 62 C-14.26045549 62.4365802 -17.46378158 62.47606991 -20.75 62.4375 C-21.63018799 62.43137695 -22.51037598 62.42525391 -23.41723633 62.41894531 C-29.85644895 62.26465582 -36.56767917 61.81794349 -42 58 C-43.23296441 55.44754736 -43.11075677 54.33616629 -42.22265625 51.640625 C-41.83980469 50.85171875 -41.45695313 50.0628125 -41.0625 49.25 C-40.68222656 48.45078125 -40.30195312 47.6515625 -39.91015625 46.828125 C-39.60980469 46.22484375 -39.30945313 45.6215625 -39 45 C-38.39671875 45.27714844 -37.7934375 45.55429687 -37.171875 45.83984375 C-36.37265625 46.20207031 -35.5734375 46.56429687 -34.75 46.9375 C-33.96109375 47.29714844 -33.1721875 47.65679688 -32.359375 48.02734375 C-28.31625612 49.6941262 -24.87594393 50.15744544 -20.5 50.1875 C-19.5615625 50.20167969 -18.623125 50.21585938 -17.65625 50.23046875 C-14.94005663 49.99479903 -13.32084954 49.38484654 -11 48 C-10.66602213 45.12586875 -10.66602213 45.12586875 -11 42 C-14.173371 38.90596327 -18.16798491 37.68005634 -22.25 36.1875 C-29.88632305 33.26447909 -36.3025766 29.93814835 -41 23 C-42.9151256 17.25462321 -42.96365787 11.1682302 -40.5 5.625 C-30.45657508 -4.92059616 -12.87568499 -6.32079081 0 0 Z " fill="#050582" transform="translate(664,477)"/>
<path d="M0 0 C0 9.24 0 18.48 0 28 C4.62 28 9.24 28 14 28 C14 32.29 14 36.58 14 41 C9.38 41 4.76 41 0 41 C0 57.5 0 74 0 91 C-4.95 91 -9.9 91 -15 91 C-15 74.17 -15 57.34 -15 40 C-18.63 40 -22.26 40 -26 40 C-26 36.37 -26 32.74 -26 29 C-22.37 29 -18.74 29 -15 29 C-15 20.42 -15 11.84 -15 3 C-4 0 -4 0 0 0 Z " fill="#070783" transform="translate(692,447)"/>
<path d="M0 0 C5.445 -0.0928125 5.445 -0.0928125 11 -0.1875 C12.12792969 -0.21481201 13.25585938 -0.24212402 14.41796875 -0.27026367 C21.53930474 -0.32864557 27.03973396 0.34750838 33.09375 4.40234375 C36.484254 8.10364395 37.43581811 10.96145561 37.625 16 C37.29989303 21.53373569 36.61991726 24.76204809 33 29 C26.16526932 33.45759633 19.35539679 33.49622562 11.4375 33.25 C7.663125 33.1675 3.88875 33.085 0 33 C0 22.11 0 11.22 0 0 Z " fill="#F8F8FB" transform="translate(290,492)"/>
<path d="M0 0 C5.28 0 10.56 0 16 0 C16 20.79 16 41.58 16 63 C10.72 63 5.44 63 0 63 C0 42.21 0 21.42 0 0 Z " fill="#0C0C86" transform="translate(599,475)"/>
<path d="M0 0 C4.95 0 9.9 0 15 0 C15 20.79 15 41.58 15 63 C10.05 63 5.1 63 0 63 C0 42.21 0 21.42 0 0 Z " fill="#020281" transform="translate(348,475)"/>
<path d="M0 0 C3.34125 -0.0825 6.6825 -0.165 10.125 -0.25 C11.16672363 -0.28641602 12.20844727 -0.32283203 13.28173828 -0.36035156 C19.06323511 -0.42929805 22.455821 0.0645428 27 4 C27.61101562 4.46792969 28.22203125 4.93585938 28.8515625 5.41796875 C31.39432027 8.92074731 30.42912448 13.89686454 30 18 C28.14199744 23.37842846 25.07836487 26.46081756 20 29 C18.47851674 29.08372659 16.95344222 29.10730027 15.4296875 29.09765625 C14.62257324 29.09515869 13.81545898 29.09266113 12.98388672 29.09008789 C11.9579541 29.08098389 10.93202148 29.07187988 9.875 29.0625 C4.986875 29.0315625 4.986875 29.0315625 0 29 C0 19.43 0 9.86 0 0 Z " fill="#FDFDFE" transform="translate(291,451)"/>
<path d="M0 0 C0.66 0 1.32 0 2 0 C2.37809814 0.87736816 2.75619629 1.75473633 3.14575195 2.65869141 C4.55855883 5.93581287 5.97364837 9.21194458 7.3894043 12.48779297 C8.00004677 13.90158938 8.61008261 15.31564798 9.21948242 16.72998047 C10.09912558 18.77121291 10.98099766 20.81147019 11.86328125 22.8515625 C12.13215652 23.47680817 12.4010318 24.10205383 12.67805481 24.74624634 C13.93821451 27.65464506 15.25422612 30.49791285 16.69604492 33.32177734 C18 36 18 36 18 38 C6.78 38 -4.44 38 -16 38 C-14.10315973 32.30947918 -12.30636279 27.17147428 -9.86328125 21.77734375 C-9.57897751 21.14639297 -9.29467377 20.5154422 -9.00175476 19.8653717 C-8.10943294 17.88753169 -7.21110351 15.91249265 -6.3125 13.9375 C-5.69946644 12.5815625 -5.08683305 11.225444 -4.47460938 9.86914062 C-2.98767883 6.57732842 -1.49535452 3.28799559 0 0 Z " fill="#F3F3F9" transform="translate(456,467)"/>
<path d="M0 0 C3.99062431 2.48472834 5.68655935 3.96748964 7.0625 8.5 C6.97577711 13.3564817 5.35758626 15.64241374 2 19 C-2.44573225 19.66608532 -6.60059441 19.78503241 -10.5625 17.5625 C-12.69172474 13.76692547 -13.69198121 10.3549687 -13 6 C-9.87466247 1.37788938 -5.60984628 -1.31294275 0 0 Z " fill="#080884" transform="translate(610,444)"/>
<path d="M0 0 C3.5386994 1.65139305 4.81070153 2.71605229 7 6 C7.39932738 9.09478718 7.64490868 11.04032979 7 14 C4.42117303 17.09459236 2.87441649 18.55423234 -1.00390625 19.4765625 C-4.74100037 19.74603039 -6.8767081 19.07962602 -10 17.0625 C-12.33216044 13.49137933 -12.73957582 11.35488967 -12.48046875 7.16015625 C-10.99125324 0.46474017 -6.1406118 -0.87723026 0 0 Z " fill="#050582" transform="translate(718,520)"/>
<path d="M0 0 C2.86830829 2.01391859 4.61592935 3.45434983 5.48046875 6.93359375 C5.75226702 10.81957437 5.20941022 12.67575192 3.0625 16 C-0.50834457 18.33198013 -2.64506019 18.74267565 -6.83984375 18.4765625 C-10.54702808 17.65870267 -11.97314048 16.13836313 -14 13 C-14.69168794 10.16465107 -14.7317778 7.82992196 -14 5 C-9.52139324 -0.53932942 -6.92988354 -1.64437915 0 0 Z " fill="#060683" transform="translate(360,445)"/>
<path d="M0 0 C3.375 1.0625 3.375 1.0625 5.375 2.6875 C6.83135054 6.14633253 6.28805869 8.47548371 5.375 12.0625 C4.25 14 4.25 14 2.375 15.0625 C-1.0625 15.5625 -1.0625 15.5625 -4.625 15.0625 C-7.28606976 12.67436047 -8.40349624 11.04696115 -9.1875 7.5625 C-8.02278297 2.38597987 -5.22100249 0.09001728 0 0 Z " fill="#2D2D96" transform="translate(425.625,559.9375)"/>
<path d="M0 0 C2.8125 0.9375 2.8125 0.9375 4.8125 2.9375 C4.8125 4.5875 4.8125 6.2375 4.8125 7.9375 C1.5125 7.9375 -1.7875 7.9375 -5.1875 7.9375 C-4.5275 9.2575 -3.8675 10.5775 -3.1875 11.9375 C-0.14363276 12.01976668 1.88425348 11.91358217 4.8125 10.9375 C4.1525 12.2575 3.4925 13.5775 2.8125 14.9375 C-3.46336207 15.42025862 -3.46336207 15.42025862 -6.625 13.3125 C-8.68541771 10.18066508 -8.8642545 8.62205227 -8.1875 4.9375 C-5.60874147 1.37274556 -4.49505989 -0.08813843 0 0 Z " fill="#2B2B95" transform="translate(577.1875,560.0625)"/>
<path d="M0 0 C1 1 1 1 1.09765625 3.94140625 C1.08605469 5.13636719 1.07445312 6.33132813 1.0625 7.5625 C1.05347656 8.76003906 1.04445313 9.95757813 1.03515625 11.19140625 C1.02355469 12.11824219 1.01195312 13.04507813 1 14 C0.34 14 -0.32 14 -1 14 C-1.33 10.37 -1.66 6.74 -2 3 C-3.65 3 -5.3 3 -7 3 C-7.33 6.3 -7.66 9.6 -8 13 C-8.99 13.33 -9.98 13.66 -11 14 C-11 9.38 -11 4.76 -11 0 C-6.50428004 -0.89914399 -4.31285646 -0.98019465 0 0 Z " fill="#1A1A8D" transform="translate(547,561)"/>
<path d="M0 0 C2 2 2 2 2.1953125 4.8203125 C2.16050781 6.45613281 2.16050781 6.45613281 2.125 8.125 C2.10695313 9.22070312 2.08890625 10.31640625 2.0703125 11.4453125 C2.04710937 12.28835938 2.02390625 13.13140625 2 14 C1.01 13.67 0.02 13.34 -1 13 C-1.33 9.7 -1.66 6.4 -2 3 C-3.65 3.33 -5.3 3.66 -7 4 C-7.33 7.3 -7.66 10.6 -8 14 C-8.66 14 -9.32 14 -10 14 C-10 9.38 -10 4.76 -10 0 C-5.66955459 -0.86608908 -3.99392372 -1.18738273 0 0 Z " fill="#282894" transform="translate(463,561)"/>
<path d="M0 0 C2.5 0.25 2.5 0.25 4.5 2.25 C4.75 5.25 4.75 5.25 4.5 8.25 C3.84 8.91 3.18 9.57 2.5 10.25 C-0.625 9.875 -0.625 9.875 -3.5 9.25 C-4.125 5.875 -4.125 5.875 -4.5 2.25 C-2.5 0.25 -2.5 0.25 0 0 Z " fill="#F1F1F8" transform="translate(424.5,562.75)"/>
<path d="M0 0 C0.99 0 1.98 0 3 0 C3 6.6 3 13.2 3 20 C2.01 20 1.02 20 0 20 C0 13.4 0 6.8 0 0 Z " fill="#292994" transform="translate(487,555)"/>
<path d="M0 0 C0.66 0 1.32 0 2 0 C2 0.66 2 1.32 2 2 C4.97 2 7.94 2 11 2 C11 1.34 11 0.68 11 0 C11.66 0 12.32 0 13 0 C13 0.99 13 1.98 13 3 C9.7 3 6.4 3 3 3 C3.66 4.32 4.32 5.64 5 7 C8.04386724 7.08226668 10.07175348 6.97608217 13 6 C12.34 7.32 11.68 8.64 11 10 C4.72413793 10.48275862 4.72413793 10.48275862 1.5625 8.375 C-0.39644605 5.397402 -0.31785906 3.49644963 0 0 Z " fill="#16168B" transform="translate(569,565)"/>
<path d="M0 0 C2.64 0 5.28 0 8 0 C7.195625 0.45375 6.39125 0.9075 5.5625 1.375 C1.85998002 5.16782534 2.10763497 8.87266134 2 14 C1.34 14 0.68 14 0 14 C0 9.38 0 4.76 0 0 Z " fill="#080884" transform="translate(453,561)"/>
<path d="M0 0 C6.43014706 0.48529412 6.43014706 0.48529412 8.9375 2.75 C10.16717908 5.35402628 10.23723981 7.15312226 10 10 C9.01 9.67 8.02 9.34 7 9 C6.690625 8.195625 6.38125 7.39125 6.0625 6.5625 C4.80228068 3.52314752 3.93176107 3.22944819 1 2 C0.67 1.34 0.34 0.68 0 0 Z " fill="#36369A" transform="translate(422,560)"/>
<path d="M0 0 C0.33 0 0.66 0 1 0 C1.36075949 4.44936709 1.36075949 4.44936709 -0.1875 6.8125 C-2.55982525 8.36678206 -4.22041345 8.22537188 -7 8 C-7 7.34 -7 6.68 -7 6 C-6.21625 5.7525 -5.4325 5.505 -4.625 5.25 C-1.67682892 3.84610901 -1.0975223 2.99324263 0 0 Z " fill="#080883" transform="translate(430,567)"/>
<path d="M0 0 C-0.763125 0.5775 -1.52625 1.155 -2.3125 1.75 C-4.66200917 3.71703093 -6.29323505 5.48476744 -8 8 C-7.74438677 5.6568787 -7.40729228 3.32156597 -7 1 C-4.53721199 -0.231394 -2.7204945 -0.07159196 0 0 Z " fill="#0A0A85" transform="translate(426,561)"/>
<path d="M0 0 C2.375 -0.1875 2.375 -0.1875 5 0 C5.66 0.99 6.32 1.98 7 3 C4.36 3 1.72 3 -1 3 C-0.67 2.01 -0.34 1.02 0 0 Z " fill="#EFEFF7" transform="translate(573,563)"/>
</svg>
