<?xml version="1.0" encoding="UTF-8"?>
<svg version="1.1" xmlns="http://www.w3.org/2000/svg" width="120" height="30">
<path d="M0 0 C330 0 660 0 1000 0 C1000 330 1000 660 1000 1000 C670 1000 340 1000 0 1000 C0 670 0 340 0 0 Z " fill="#FEFEFE" transform="translate(0,0)"/>
<path d="M0 0 C0.94009918 -0.00571014 1.88019836 -0.01142029 2.8487854 -0.01730347 C3.88910416 -0.01842133 4.92942291 -0.01953918 6.00126648 -0.02069092 C7.09094727 -0.02565582 8.18062805 -0.03062073 9.30332947 -0.03573608 C12.93531415 -0.05042326 16.56725493 -0.05717623 20.19926453 -0.06268311 C22.72825115 -0.06843627 25.25723776 -0.07419398 27.78622437 -0.07995605 C32.42870711 -0.08914084 37.07117672 -0.09542875 41.71366626 -0.09845281 C48.49971583 -0.10289849 55.28556044 -0.12026914 62.07154781 -0.1494534 C67.97735392 -0.17394969 73.88309378 -0.18141096 79.78894615 -0.18312836 C82.28161409 -0.1861277 84.77428175 -0.19406249 87.26691628 -0.20731354 C106.04790529 -0.29989377 124.64646231 0.18084667 142.46098328 6.76544189 C143.41964294 7.11099121 144.37830261 7.45654053 145.36601257 7.81256104 C158.20812935 12.62525456 168.96668676 19.3382678 178.64848328 29.14044189 C179.34328796 29.81333252 180.03809265 30.48622314 180.75395203 31.17950439 C195.23707403 46.13886059 199.82285238 66.21823364 199.83598328 86.45294189 C199.84822937 87.43456299 199.86047546 88.41618408 199.87309265 89.42755127 C199.90758956 106.80249586 193.97114131 123.38985402 182.08598328 136.26544189 C176.40108109 141.65995615 167.54410949 148.90919325 159.64848328 150.14044189 C159.64848328 150.80044189 159.64848328 151.46044189 159.64848328 152.14044189 C160.72742859 152.31059814 160.72742859 152.31059814 161.82817078 152.48419189 C174.85034061 155.51428127 186.13023994 166.34770528 193.64067078 176.88653564 C201.13967097 189.0395846 203.99564149 200.84071142 203.89848328 214.95294189 C203.90621765 216.0647583 203.91395203 217.17657471 203.92192078 218.32208252 C203.87454953 238.56144559 197.75457839 257.801692 183.43754578 272.38653564 C182.51715515 273.29532471 181.59676453 274.20411377 180.64848328 275.14044189 C179.89309265 275.89454346 179.13770203 276.64864502 178.35942078 277.42559814 C153.48861854 300.89459153 117.55122377 302.9913263 85.26390076 302.48376465 C81.56868228 302.43146845 77.87326914 302.4092625 74.17778015 302.38458252 C67.00038759 302.33455887 59.82598775 302.2365978 52.64848328 302.14044189 C52.64848328 283.99044189 52.64848328 265.84044189 52.64848328 247.14044189 C79.39848328 246.76544189 79.39848328 246.76544189 87.76860046 246.66241455 C89.99419786 246.62716038 92.21978474 246.5912339 94.44535828 246.55450439 C95.5715155 246.54314453 96.69767273 246.53178467 97.85795593 246.52008057 C112.85374602 246.25032535 127.66312565 244.21272588 138.80082703 233.27716064 C145.09776567 225.99507727 145.32992381 218.37879941 144.96488953 209.11309814 C144.41589938 202.22022183 142.44585154 196.98414566 137.68363953 191.87091064 C121.78654584 178.35380411 101.0672137 179.6785642 81.46488953 179.62872314 C78.95283139 179.61185006 76.44078157 179.59369635 73.92874146 179.57432556 C68.03250133 179.53191028 62.13630898 179.50224167 56.23996443 179.47900218 C48.85456344 179.44909159 41.46932124 179.39893565 34.08403015 179.34942627 C20.93891118 179.26371162 7.79376396 179.19566282 -5.35151672 179.14044189 C-5.37484316 155.94939701 -5.39249464 132.75835406 -5.4033289 109.56729984 C-5.4084924 98.80009126 -5.41553612 88.03288995 -5.42695618 77.26568604 C-5.43690137 67.88458945 -5.44336976 58.50349812 -5.44560522 49.12239641 C-5.44691261 44.15193972 -5.45000023 39.1814981 -5.45724678 34.21104622 C-5.4640044 29.53836067 -5.46613422 24.86569649 -5.4646244 20.19300652 C-5.46490085 18.47282673 -5.4669075 16.75264628 -5.4707222 15.0324707 C-5.47565542 12.69437529 -5.4745164 10.35636186 -5.47177124 8.01826477 C-5.47269303 6.70655335 -5.47361483 5.39484194 -5.47456455 4.04338169 C-5.28336143 -0.46747522 -4.09455805 0.01483275 0 0 Z " fill="#000080" transform="translate(297.3515167236328,292.85955810546875)"/>
<path d="M0 0 C2.5625 0.5 2.5625 0.5 3.97973633 2.43676758 C6.09213531 6.52503999 7.77021079 10.73015889 9.44921875 15.01171875 C9.82299652 15.95530746 10.19677429 16.89889618 10.58187866 17.87107849 C11.80937307 20.97468634 13.0299442 24.08096116 14.25 27.1875 C15.10920712 29.36640781 15.96850185 31.54528107 16.82788086 33.72412109 C22.8557736 49.03419533 28.74911147 64.39292906 34.57763672 79.77978516 C39.42720072 92.57361054 44.37674172 105.32607441 49.375 118.0625 C49.74760956 119.01202545 50.12021912 119.9615509 50.50411987 120.93984985 C50.87779694 121.89209442 51.251474 122.84433899 51.63647461 123.82543945 C57.1881049 137.97447759 62.6990288 152.13884721 68.1875 166.3125 C73.95948404 181.21607489 79.74553555 196.11392162 85.5625 211 C92.4067655 228.51580617 99.21167615 246.04674264 106.00585938 263.58203125 C106.38624359 264.56325958 106.76662781 265.54448792 107.15853882 266.55545044 C107.90123567 268.47340163 108.64250085 270.39190792 109.38223267 272.31100464 C111.12302496 276.82155136 112.88685751 281.31958455 114.71044922 285.79736328 C115.04402939 286.62563126 115.37760956 287.45389923 115.72129822 288.30726624 C116.34383818 289.84964317 116.97508598 291.38854615 117.61671448 292.92308044 C119.08216671 296.57533299 119.84746668 298.75627009 118.5625 302.5 C116.85948758 304.20301242 114.66887023 303.63626608 112.34008789 303.64526367 C110.6681411 303.65483345 110.6681411 303.65483345 108.9624176 303.66459656 C107.14217323 303.66626579 107.14217323 303.66626579 105.28515625 303.66796875 C104.04833603 303.67129715 102.81151581 303.67462555 101.53721619 303.67805481 C98.91519545 303.6831293 96.29316822 303.68546298 93.67114258 303.68530273 C90.97543658 303.68522129 88.27989981 303.69218657 85.58422852 303.70581055 C81.71365102 303.72405346 77.84327233 303.72903586 73.97265625 303.73046875 C72.15544823 303.74124702 72.15544823 303.74124702 70.30152893 303.75224304 C69.18374557 303.74916641 68.06596222 303.74608978 66.91430664 303.74291992 C65.92693008 303.74434494 64.93955353 303.74576996 63.92225647 303.74723816 C61.5625 303.5 61.5625 303.5 59.5625 301.5 C58.93030613 299.97687938 58.37016084 298.42352156 57.84765625 296.859375 C57.50162354 295.83779297 57.15559082 294.81621094 56.79907227 293.76367188 C56.41162842 292.60416016 56.02418457 291.44464844 55.625 290.25 C54.72264299 287.58721239 53.81449289 284.92640996 52.90625 282.265625 C52.65279312 281.52175537 52.39933624 280.77788574 52.13819885 280.01147461 C48.37290111 268.98246935 44.49424886 257.99285954 40.625 247 C40.22137238 245.85268402 39.81774475 244.70536804 39.40188599 243.52328491 C31.27370721 220.42836848 23.01362577 197.38145164 14.73416138 174.34043884 C11.42629165 165.1303996 8.14305744 155.91173428 4.875 146.6875 C4.64385498 146.03508331 4.41270996 145.38266663 4.17456055 144.71047974 C2.9692382 141.30744637 1.76514816 137.90397933 0.5625 134.5 C-1.16604227 137.0928134 -2.05859451 138.96091835 -3.04711914 141.85229492 C-3.50618149 143.18410294 -3.50618149 143.18410294 -3.97451782 144.54281616 C-4.46859634 145.99695419 -4.46859634 145.99695419 -4.97265625 147.48046875 C-5.32282806 148.49903961 -5.67299988 149.51761047 -6.03378296 150.56704712 C-6.79341282 152.77745623 -7.55119008 154.98850266 -8.30734253 157.20010376 C-10.34382895 163.15490241 -12.39473218 169.10473031 -14.4453125 175.0546875 C-14.86471603 176.27241348 -15.28411957 177.49013947 -15.7162323 178.74476624 C-19.69905863 190.29245041 -23.77691023 201.80532374 -27.875 213.3125 C-32.5037306 226.31465855 -37.08714306 239.33118081 -41.5859375 252.37890625 C-41.80208521 253.00565813 -42.01823292 253.63241001 -42.24093056 254.27815437 C-44.56512757 261.01902569 -46.88306547 267.76201744 -49.19506836 274.50708008 C-49.58220001 275.63351425 -49.96933167 276.75994843 -50.36819458 277.92051697 C-51.08808348 280.01521263 -51.80600281 282.11058679 -52.52145386 284.20680237 C-58.48763464 301.55013464 -58.48763464 301.55013464 -60.4375 303.5 C-62.21196009 303.59893778 -63.99036251 303.62799092 -65.76757812 303.62939453 C-66.90545776 303.63254669 -68.0433374 303.63569885 -69.21569824 303.63894653 C-70.45420532 303.6369223 -71.6927124 303.63489807 -72.96875 303.6328125 C-74.23013794 303.63376923 -75.49152588 303.63472595 -76.7911377 303.63571167 C-79.46447138 303.63639375 -82.13771437 303.63503529 -84.81103516 303.63037109 C-88.24456691 303.62467381 -91.6780205 303.62795301 -95.11154938 303.63394356 C-98.37645243 303.63841762 -101.64134593 303.63528883 -104.90625 303.6328125 C-106.14475708 303.63483673 -107.38326416 303.63686096 -108.65930176 303.63894653 C-109.7971814 303.63579437 -110.93506104 303.63264221 -112.10742188 303.62939453 C-113.11478394 303.62859894 -114.122146 303.62780334 -115.16003418 303.62698364 C-117.4375 303.5 -117.4375 303.5 -118.4375 302.5 C-118.03832067 296.04325156 -116.24179734 290.69590544 -113.8515625 284.72265625 C-113.48320282 283.78034653 -113.11484314 282.8380368 -112.73532104 281.86717224 C-111.51945101 278.76224226 -110.29090108 275.66249116 -109.0625 272.5625 C-108.20019867 270.36626728 -107.33888749 268.16964556 -106.47851562 265.97265625 C-104.69035814 261.40880138 -102.89795149 256.84664994 -101.10253906 252.28564453 C-97.40277871 242.87755335 -93.75489503 233.44945267 -90.10687256 224.02120972 C-88.13623616 218.92984188 -86.16165416 213.84000462 -84.1875 208.75 C-83.39581475 206.70834054 -82.60414807 204.66667388 -81.8125 202.625 C-58.0625 141.375 -58.0625 141.375 -56.87501526 138.31254578 C-56.08329195 136.27072876 -55.29157443 134.22890951 -54.49986267 132.18708801 C-52.52160989 127.08520331 -50.54325702 121.98335746 -48.56469727 116.8815918 C-44.59168805 106.63676542 -40.62039457 96.39127922 -36.65234375 86.14453125 C-32.3243775 74.96928462 -27.99056378 63.79631806 -23.65136719 52.62542725 C-22.82496329 50.49762835 -21.99880084 48.36973566 -21.17285156 46.24176025 C-18.64549205 39.73037924 -16.11436566 33.22048681 -13.57766724 26.71273804 C-12.78156143 24.66880926 -11.98668242 22.62440219 -11.19308472 20.57949829 C-10.09957186 17.7625973 -9.00155493 14.94749385 -7.90234375 12.1328125 C-7.41779724 10.88030449 -7.41779724 10.88030449 -6.92346191 9.60249329 C-6.62379517 8.8379332 -6.32412842 8.07337311 -6.01538086 7.28564453 C-5.75736191 6.62291534 -5.49934296 5.96018616 -5.23350525 5.27737427 C-3.16034195 0.64827527 -3.16034195 0.64827527 0 0 Z " fill="#010180" transform="translate(609.4375,425.5)"/>
<path d="M0 0 C13.3959375 -0.1546875 13.3959375 -0.1546875 27.0625 -0.3125 C31.24305054 -0.38078003 31.24305054 -0.38078003 35.50805664 -0.45043945 C52.86843065 -0.61572026 68.39378531 0.15184888 81.734375 12.62109375 C88.7971661 20.19086738 90.58726129 27.71152573 90.47485352 37.82495117 C90.24903676 43.45785946 89.40249346 47.51948881 86 52 C84.948125 53.546875 84.948125 53.546875 83.875 55.125 C75.22494893 64.77111756 61.41944156 68.03381612 49 69 C45.13315501 69.12405712 41.27084863 69.1172136 37.40234375 69.09765625 C35.9710614 69.09614563 35.9710614 69.09614563 34.51086426 69.09460449 C30.98639707 69.08941877 27.46194718 69.07545795 23.9375 69.0625 C16.038125 69.041875 8.13875 69.02125 0 69 C0 46.23 0 23.46 0 0 Z " fill="#FDFDFE" transform="translate(349,347)"/>
</svg>
