<?xml version="1.0" encoding="UTF-8"?>
<svg version="1.1" xmlns="http://www.w3.org/2000/svg" width="1000" height="1000">
<path d="M0 0 C48.24682203 0 48.24682203 0 56.33984375 7.84375 C60.736329 13.55400849 62.9095619 20.85344224 62 28 C60.34317516 35.95275922 57.93083488 41.37944341 51 46 C51.58007812 46.27972656 52.16015625 46.55945313 52.7578125 46.84765625 C59.42439199 50.26895365 63.9347149 53.96330639 67.375 60.6875 C69.14756678 70.08210392 68.81347198 80.02659403 63.55859375 88.2578125 C56.93230812 96.59063572 49.39538932 97.92092214 39 100 C26.13 100 13.26 100 0 100 C0 67 0 34 0 0 Z M15 13 C15 22.57 15 32.14 15 42 C19.764375 42.0928125 19.764375 42.0928125 24.625 42.1875 C25.6145166 42.21481201 26.6040332 42.24212402 27.62353516 42.27026367 C32.84795187 42.31937129 36.50081767 41.96425002 41 39 C45.55283666 34.07801442 46.41441903 30.04493407 46.34765625 23.51171875 C45.76905363 19.33147733 44.13413435 17.7858972 41 15 C37.51479801 13.30917729 34.77479369 12.75736449 30.91796875 12.8046875 C30.0777417 12.80968262 29.23751465 12.81467773 28.37182617 12.81982422 C26.79558472 12.84713623 26.79558472 12.84713623 25.1875 12.875 C20.1446875 12.936875 20.1446875 12.936875 15 13 Z M15 55 C14.9116033 57.3756852 14.88469695 59.72208674 14.90234375 62.09765625 C14.9037587 62.80651474 14.90517365 63.51537323 14.90663147 64.24571228 C14.91224557 66.51801712 14.92480037 68.79022475 14.9375 71.0625 C14.94251319 72.59960796 14.94707641 74.13671745 14.95117188 75.67382812 C14.96221958 79.44925642 14.97949359 83.22461171 15 87 C18.85402129 87.08770383 22.70778291 87.14062735 26.5625 87.1875 C28.19155273 87.22520508 28.19155273 87.22520508 29.85351562 87.26367188 C37.22472067 87.33088651 42.42741656 86.89668927 48.3125 82.125 C52.46509027 76.89581225 52.68375279 71.47428426 52 65 C50.27639016 60.82704986 47.80564024 58.39920798 44 56 C37.72941044 53.99154 31.53284273 53.7156794 25 53.8125 C23.71416016 53.8134668 23.71416016 53.8134668 22.40234375 53.81445312 C18.38122581 53.4471807 18.38122581 53.4471807 15 55 Z " fill="#000000" transform="translate(275,438)"/>
<path d="M0 0 C3 1 3 1 4.2199707 2.94824219 C4.81684692 4.23456543 4.81684692 4.23456543 5.42578125 5.546875 C5.88533203 6.52205078 6.34488281 7.49722656 6.81835938 8.50195312 C7.31142578 9.57380859 7.80449219 10.64566406 8.3125 11.75 C9.3912606 14.0471881 10.47071532 16.34405034 11.55078125 18.640625 C12.1206173 19.86002051 12.69044137 21.07942162 13.26025391 22.29882812 C15.8302103 27.78308797 18.47661609 33.23035815 21.11859131 38.68017578 C22.2959458 41.11103247 23.46888566 43.54400817 24.64196777 45.97692871 C27.23268761 51.34972633 29.83497493 56.71672236 32.44921875 62.078125 C33.52868871 64.30206252 34.60811769 66.52601993 35.6875 68.75 C36.42709961 70.25723633 36.42709961 70.25723633 37.18164062 71.79492188 C39.91478464 77.44137507 42.15500753 83.00223184 44 89 C44.66 89 45.32 89 46 89 C46.33 87.35 46.66 85.7 47 84 C47.66386719 84.27714844 48.32773437 84.55429687 49.01171875 84.83984375 C49.89472656 85.20207031 50.77773438 85.56429687 51.6875 85.9375 C52.55761719 86.29714844 53.42773438 86.65679688 54.32421875 87.02734375 C60.45984068 89.25766471 66.57497289 89.80160209 72.9375 88.3125 C75.21580918 87.14121315 75.21580918 87.14121315 76 84.5625 C76.26935462 81.99607209 76.26935462 81.99607209 74.73095703 80.43847656 C72.93438058 78.94546832 71.48954253 78.21827036 69.3046875 77.421875 C68.5926416 77.15173584 67.8805957 76.88159668 67.14697266 76.60327148 C66.39722168 76.32169189 65.6474707 76.0401123 64.875 75.75 C56.89010508 72.59797915 50.13184249 69.2706943 44.9375 62.1875 C43.38717659 56.9164004 42.90658651 51.95626609 44.84375 46.71875 C48.35540526 40.3598067 53.35350589 38.21549804 60 36 C78.61074986 35.03417266 78.61074986 35.03417266 87 39 C87.33 39.66 87.66 40.32 88 41 C87.00390625 43.3828125 87.00390625 43.3828125 85.5625 46.125 C84.85287109 47.49011719 84.85287109 47.49011719 84.12890625 48.8828125 C83.75636719 49.58148438 83.38382813 50.28015625 83 51 C81.85724609 50.65775391 81.85724609 50.65775391 80.69140625 50.30859375 C73.71560269 48.3665161 66.84880826 46.57559587 60 50 C60 52.31 60 54.62 60 57 C64.63736571 59.40786296 69.27668698 61.54737518 74.125 63.5 C80.84769835 66.27713483 85.74947226 68.86034882 90 75 C91.84961854 80.54885563 91.79897602 85.9415324 89.375 91.3125 C86.75202829 95.95811538 83.23857774 98.0747212 78.36328125 100.08984375 C74.17075273 101.22440722 70.3810154 101.25559277 66.0625 101.1875 C65.28970703 101.18685547 64.51691406 101.18621094 63.72070312 101.18554688 C60.24788318 101.15912644 56.96685226 100.9951582 53.5234375 100.4921875 C49.17424504 99.88465064 44.94605634 99.89158039 40.5625 99.9375 C39.32209961 99.94426758 39.32209961 99.94426758 38.05664062 99.95117188 C36.03772854 99.96284189 34.01885426 99.98077282 32 100 C30.66065284 97.04435292 29.32955753 94.0850622 28 91.125 C27.6184375 90.28324219 27.236875 89.44148437 26.84375 88.57421875 C26.4828125 87.76855469 26.121875 86.96289062 25.75 86.1328125 C25.41484375 85.38918457 25.0796875 84.64555664 24.734375 83.87939453 C24 82 24 82 24 80 C8.82 80.33 -6.36 80.66 -22 81 C-24.64 86.94 -27.28 92.88 -30 99 C-31 100 -31 100 -33.43605042 100.12025452 C-34.51748825 100.11803391 -35.59892609 100.11581329 -36.71313477 100.11352539 C-37.9343251 100.11344986 -39.15551544 100.11337433 -40.41371155 100.11329651 C-41.75627686 100.10818911 -43.09884175 100.10297311 -44.44140625 100.09765625 C-45.80761158 100.09579199 -47.17381757 100.09436813 -48.5400238 100.09336853 C-52.14201695 100.08954394 -55.74397 100.07971417 -59.34594727 100.06866455 C-63.01903745 100.05844916 -66.69213409 100.05387064 -70.36523438 100.04882812 C-77.57684123 100.03809184 -84.788415 100.02101614 -92 100 C-87.53780054 92.09904133 -83.02814673 84.26342578 -78.125 76.625 C-77.09986286 75.01587821 -76.0751309 73.40649822 -75.05078125 71.796875 C-74.54498535 71.00345703 -74.03918945 70.21003906 -73.51806641 69.39257812 C-70.65823263 64.88528141 -67.84513475 60.34863386 -65.03369141 55.81103516 C-62.10766602 51.10766602 -62.10766602 51.10766602 -61 50 C-69.25 49.67 -77.5 49.34 -86 49 C-86 45.04 -86 41.08 -86 37 C-70.16 37 -54.32 37 -38 37 C-39.6550871 41.9652613 -41.45894612 45.64890212 -44.25 49.9375 C-45.14467978 51.34022166 -46.03781243 52.74393089 -46.9296875 54.1484375 C-47.41663086 54.91381836 -47.90357422 55.67919922 -48.40527344 56.46777344 C-51.44844993 61.29995754 -54.40829611 66.1831346 -57.375 71.0625 C-57.96958008 72.03759521 -58.56416016 73.01269043 -59.17675781 74.01733398 C-62.19107807 78.97266789 -65.15405507 83.94599434 -68 89 C-67.17097168 88.76228882 -67.17097168 88.76228882 -66.32519531 88.51977539 C-63.77935695 87.95067733 -61.40300555 87.7896572 -58.796875 87.68359375 C-57.8171875 87.64169922 -56.8375 87.59980469 -55.828125 87.55664062 C-54.81234375 87.51732422 -53.7965625 87.47800781 -52.75 87.4375 C-51.71875 87.39431641 -50.6875 87.35113281 -49.625 87.30664062 C-47.0834613 87.20074318 -44.54182804 87.09866557 -42 87 C-41.71092773 86.36650635 -41.42185547 85.7330127 -41.12402344 85.08032227 C-33.06781988 67.47331831 -24.68906057 50.03762479 -16.15722656 32.65649414 C-15.33774919 30.98590921 -14.51841108 29.31525597 -13.69921875 27.64453125 C-13.10658737 26.43658653 -13.10658737 26.43658653 -12.50198364 25.20423889 C-9.40754075 18.87816637 -6.39576618 12.51536093 -3.43913269 6.12373352 C-1.10458253 1.10458253 -1.10458253 1.10458253 0 0 Z M0 29 C-0.34256836 29.77077881 -0.68513672 30.54155762 -1.03808594 31.33569336 C-3.68684896 37.29541016 -6.33561198 43.25512695 -8.984375 49.21484375 C-9.7568457 50.95677002 -9.7568457 50.95677002 -10.54492188 52.73388672 C-11.44983038 54.76507229 -12.36138978 56.79332481 -13.28320312 58.81689453 C-13.83137695 60.02321533 -13.83137695 60.02321533 -14.390625 61.25390625 C-14.86290527 62.28173218 -14.86290527 62.28173218 -15.34472656 63.33032227 C-16.12177603 65.01135004 -16.12177603 65.01135004 -16 67 C-5.11 67 5.78 67 17 67 C16.21767695 62.30606168 15.5612175 59.57546922 13.63671875 55.4453125 C13.16169922 54.41792969 12.68667969 53.39054687 12.19726562 52.33203125 C11.44993164 50.74455078 11.44993164 50.74455078 10.6875 49.125 C10.20087891 48.07441406 9.71425781 47.02382813 9.21289062 45.94140625 C6.56519744 40.24690598 3.84077309 34.60057403 1 29 C0.67 29 0.34 29 0 29 Z " fill="#000000" transform="translate(456,438)"/>
<path d="M0 0 C2.80732192 2.01394833 4.62383309 3.49836596 5.484375 6.93359375 C5.75854201 10.9623256 5.27863939 12.62582711 2.8125 15.9375 C-0.11277654 18.08270279 -1.39917454 19 -5 19 C-11.45985401 16.81021898 -11.45985401 16.81021898 -14 13 C-14.78993519 6.00343119 -14.78993519 6.00343119 -11.6875 2.0625 C-7.52852963 -1.12926796 -4.98213248 -1.39499709 0 0 Z " fill="#000000" transform="translate(360,445)"/>
<path d="M0 0 C2.84753929 2.43227315 4.8007944 4.17919093 5.22265625 8.03515625 C4.95883485 11.47770375 4.29037281 13.58057261 2.3125 16.4375 C-0.57109651 18.38587602 -2.52686674 18.85823946 -6 19 C-9.39662992 18.05210328 -12.02012707 16.96980939 -14 14 C-15.73178156 7.39758281 -15.73178156 7.39758281 -14.046875 4.1796875 C-9.8315983 -1.07671176 -6.36167178 -1.64525994 0 0 Z " fill="#000000" transform="translate(612,445)"/>
<path d="M0 0 C0 9.24 0 18.48 0 28 C4.62 28 9.24 28 14 28 C14 31.96 14 35.92 14 40 C9.38 40 4.76 40 0 40 C0 56.83 0 73.66 0 91 C-4.95 91 -9.9 91 -15 91 C-15.33 74.5 -15.66 58 -16 41 C-19.3 40.67 -22.6 40.34 -26 40 C-26.495 37.03 -26.495 37.03 -27 34 C-28.32 36.64 -29.64 39.28 -31 42 C-31.845625 41.77183594 -32.69125 41.54367187 -33.5625 41.30859375 C-42.74939899 38.97507981 -42.74939899 38.97507981 -52 40 C-54.15565917 41.06718298 -54.15565917 41.06718298 -55 43 C-55.39491898 45.53714314 -55.39491898 45.53714314 -54 48 C-50.44877885 50.14413352 -46.93392862 51.6324297 -43.08203125 53.1484375 C-28.31181216 59.02657286 -28.31181216 59.02657286 -24 66.4375 C-22.1201174 73.13458177 -22.60629832 77.89133697 -26 84 C-31.87943231 90.01616329 -37.70881572 92.09185715 -46.07446289 92.3527832 C-54.83190531 92.43971756 -63.51199536 91.99200309 -71 87 C-70.33501617 82.61110675 -68.81242323 79.0188515 -67 75 C-66.00419922 75.41572266 -66.00419922 75.41572266 -64.98828125 75.83984375 C-64.10527344 76.20207031 -63.22226562 76.56429687 -62.3125 76.9375 C-61.44238281 77.29714844 -60.57226562 77.65679688 -59.67578125 78.02734375 C-53.55799089 80.25118287 -47.38918993 80.86532509 -41.0625 79.25 C-38.90791617 78.1572377 -38.90791617 78.1572377 -37.875 76.1875 C-37.79618222 73.74813532 -37.79618222 73.74813532 -40.05078125 71.546875 C-43.27412 68.76327651 -46.35750718 67.42502358 -50.3125 66.0625 C-57.7371214 63.28896041 -63.04986468 60.09764209 -68.5 54.375 C-70.77296759 49.26082292 -70.72685038 44.50437738 -70 39 C-67.5817189 33.45810582 -63.306469 30.60141351 -58 28 C-48.80823586 24.72311548 -35.79410143 26.37000236 -27 30 C-26.67 29.34 -26.34 28.68 -26 28 C-22.37 28 -18.74 28 -15 28 C-15 19.75 -15 11.5 -15 3 C-6 0 -6 0 0 0 Z " fill="#000000" transform="translate(692,447)"/>
<path d="M0 0 C0.495 0.99 0.495 0.99 1 2 C0.00390625 4.3828125 0.00390625 4.3828125 -1.4375 7.125 C-1.91058594 8.03507812 -2.38367188 8.94515625 -2.87109375 9.8828125 C-3.24363281 10.58148438 -3.61617187 11.28015625 -4 12 C-4.845625 11.77183594 -5.69125 11.54367187 -6.5625 11.30859375 C-15.74939899 8.97507981 -15.74939899 8.97507981 -25 10 C-27.15565917 11.06718298 -27.15565917 11.06718298 -28 13 C-28.39491898 15.53714314 -28.39491898 15.53714314 -27 18 C-23.44877885 20.14413352 -19.93392862 21.6324297 -16.08203125 23.1484375 C-1.31181216 29.02657286 -1.31181216 29.02657286 3 36.4375 C4.8798826 43.13458177 4.39370168 47.89133697 1 54 C-4.87943231 60.01616329 -10.70881572 62.09185715 -19.07446289 62.3527832 C-27.83190531 62.43971756 -36.51199536 61.99200309 -44 57 C-43.33501617 52.61110675 -41.81242323 49.0188515 -40 45 C-39.33613281 45.27714844 -38.67226563 45.55429687 -37.98828125 45.83984375 C-37.10527344 46.20207031 -36.22226562 46.56429687 -35.3125 46.9375 C-34.44238281 47.29714844 -33.57226562 47.65679688 -32.67578125 48.02734375 C-26.55799089 50.25118287 -20.38918993 50.86532509 -14.0625 49.25 C-11.90791617 48.1572377 -11.90791617 48.1572377 -10.875 46.1875 C-10.79618222 43.74813532 -10.79618222 43.74813532 -13.05078125 41.546875 C-16.27412 38.76327651 -19.35750718 37.42502358 -23.3125 36.0625 C-30.7371214 33.28896041 -36.04986468 30.09764209 -41.5 24.375 C-43.77296759 19.26082292 -43.72685038 14.50437738 -43 9 C-40.5817189 3.45810582 -36.306469 0.60141351 -31 -2 C-22.32863289 -5.09136182 -8.16170719 -4.11863927 0 0 Z " fill="#000000" transform="translate(592,477)"/>
<path d="M0 0 C4.95 0 9.9 0 15 0 C15 20.79 15 41.58 15 63 C10.05 63 5.1 63 0 63 C0 42.21 0 21.42 0 0 Z " fill="#000000" transform="translate(348,475)"/>
<path d="M0 0 C4.95 0 9.9 0 15 0 C15 20.79 15 41.58 15 63 C10.05 63 5.1 63 0 63 C0 42.21 0 21.42 0 0 Z " fill="#000000" transform="translate(600,475)"/>
<path d="M0 0 C2.75329021 1.79562405 4.52627461 3.05254922 6 6 C6.39447548 10.18144011 6.45035186 12.30946048 4.125 15.875 C1.21289342 18.78710658 0.3997223 18.96068305 -3.8125 19.375 C-7.16084564 19.30791111 -8.03191618 18.97938747 -11 17.0625 C-13.6601163 12.98919692 -13.98443537 9.74480111 -13 5 C-9.31754563 0.09006083 -5.99877304 -0.5083706 0 0 Z " fill="#000000" transform="translate(719,520)"/>
<path d="M0 0 C0.99 0 1.98 0 3 0 C3 6.27 3 12.54 3 19 C2.01 19 1.02 19 0 19 C0 12.73 0 6.46 0 0 Z " fill="#000000" transform="translate(487,555)"/>
<path d="M0 0 C2.52366824 2.84930286 3.02743228 4.31419292 2.875 8.125 C1.55319149 12.46808511 1.55319149 12.46808511 -1 14 C-6.93939394 14.63636364 -6.93939394 14.63636364 -9.875 12.875 C-11.46117551 10.23137414 -11.81225297 8.06653482 -12 5 C-11.19470612 2.36449276 -10.44657038 1.33492778 -8.25 -0.3125 C-5.08357433 -1.28001895 -3.14477574 -1.00365183 0 0 Z M-9 4 C-8.67673447 7.59679066 -8.67673447 7.59679066 -8 11 C-5.64632287 11.6878236 -5.64632287 11.6878236 -3 12 C-2.01 11.34 -1.02 10.68 0 10 C0.41666667 7 0.41666667 7 0 4 C-1.82703227 1.7508092 -1.82703227 1.7508092 -4.5 1.75 C-7.17296773 1.7508092 -7.17296773 1.7508092 -9 4 Z " fill="#000000" transform="translate(429,561)"/>
<path d="M0 0 C2 2 2 2 2.1953125 4.8203125 C2.16050781 6.45613281 2.16050781 6.45613281 2.125 8.125 C2.10695313 9.22070312 2.08890625 10.31640625 2.0703125 11.4453125 C2.04710937 12.28835938 2.02390625 13.13140625 2 14 C1.01 13.67 0.02 13.34 -1 13 C-1.33 9.7 -1.66 6.4 -2 3 C-3.65 3.33 -5.3 3.66 -7 4 C-7.33 7.3 -7.66 10.6 -8 14 C-8.66 14 -9.32 14 -10 14 C-10 9.38 -10 4.76 -10 0 C-2.9787234 -1.17021277 -2.9787234 -1.17021277 0 0 Z " fill="#000000" transform="translate(463,561)"/>
<path d="M0 0 C1.38226016 2.76452033 1.09525387 5.0461363 1.0625 8.125 C1.05347656 9.22070312 1.04445313 10.31640625 1.03515625 11.4453125 C1.02355469 12.28835938 1.01195312 13.13140625 1 14 C0.34 14 -0.32 14 -1 14 C-1.33 10.04 -1.66 6.08 -2 2 C-3.65 2.33 -5.3 2.66 -7 3 C-7.33 6.3 -7.66 9.6 -8 13 C-8.99 13.33 -9.98 13.66 -11 14 C-11 9.38 -11 4.76 -11 0 C-3.81188119 -1.1980198 -3.81188119 -1.1980198 0 0 Z " fill="#000000" transform="translate(547,561)"/>
<path d="M0 0 C2.8125 1 2.8125 1 4.8125 4 C4.8125 5.32 4.8125 6.64 4.8125 8 C1.5125 8 -1.7875 8 -5.1875 8 C-4.5275 9.32 -3.8675 10.64 -3.1875 12 C0.2775 11.505 0.2775 11.505 3.8125 11 C3.8125 11.99 3.8125 12.98 3.8125 14 C2.8125 15 2.8125 15 -0.5625 15.25 C-4.1875 15 -4.1875 15 -6.0625 13.9375 C-7.84600044 10.86591591 -8.1875 8.54361243 -8.1875 5 C-5.67917189 1.35152275 -4.50404204 0 0 0 Z M-4.1875 3 C-4.5175 3.99 -4.8475 4.98 -5.1875 6 C-2.5475 6 0.0925 6 2.8125 6 C2.1525 5.01 1.4925 4.02 0.8125 3 C-1.77130177 2.74969023 -1.77130177 2.74969023 -4.1875 3 Z " fill="#000000" transform="translate(577.1875,560)"/>
<path d="M0 0 C0.66 0 1.32 0 2 0 C2 4.62 2 9.24 2 14 C1.34 14 0.68 14 0 14 C0 9.38 0 4.76 0 0 Z " fill="#000000" transform="translate(512,561)"/>
</svg>
