<?xml version="1.0" encoding="UTF-8"?>
<svg version="1.1" xmlns="http://www.w3.org/2000/svg" width="120" height="30">
<path d="M0 0 C1.270998 -0.01062721 1.270998 -0.01062721 2.56767273 -0.02146912 C3.4896344 -0.0189917 4.41159607 -0.01651428 5.36149597 -0.01396179 C6.82851204 -0.02162819 6.82851204 -0.02162819 8.32516479 -0.02944946 C11.56935208 -0.04337982 14.81332717 -0.04238331 18.05754089 -0.04008484 C20.32843097 -0.04397547 22.59932032 -0.04831089 24.87020874 -0.05307007 C29.64597418 -0.06054372 34.42166576 -0.06023677 39.19743347 -0.05497742 C45.25307263 -0.04924091 51.30840009 -0.0659656 57.36398792 -0.08932209 C62.06672878 -0.1042344 66.7693981 -0.10490667 71.47215843 -0.10181236 C73.6999796 -0.10231884 75.92780552 -0.10742669 78.15560341 -0.11762428 C113.56947149 -0.25958771 149.36346706 4.38276479 175.72550964 30.26069641 C176.42547058 30.93616516 177.12543152 31.61163391 177.84660339 32.30757141 C194.24102089 49.30918956 197.20300746 71.72650129 196.92863464 94.36225891 C196.4926399 111.29693276 189.60272203 126.48194541 177.80754089 138.55757141 C172.20001933 143.69518894 164.36898747 150.00243348 156.72550964 151.26069641 C156.72550964 151.92069641 156.72550964 152.58069641 156.72550964 153.26069641 C157.80445496 153.43085266 157.80445496 153.43085266 158.90519714 153.60444641 C172.84287428 156.84756242 184.41752445 168.54789823 191.72550964 180.26069641 C202.4514326 198.09899609 203.96667638 219.73217494 199.13420105 239.70454407 C195.19879388 253.90697853 189.10878925 264.70858299 178.72550964 275.26069641 C177.96367371 276.03542297 177.20183777 276.81014954 176.41691589 277.60835266 C149.25155453 303.6139449 108.1849091 304.65702795 72.91300964 304.38569641 C65.26113464 304.34444641 57.60925964 304.30319641 49.72550964 304.26069641 C49.72550964 285.78069641 49.72550964 267.30069641 49.72550964 248.26069641 C76.66300964 248.01069641 76.66300964 248.01069641 85.0533905 247.96284485 C111.69219191 247.89273763 111.69219191 247.89273763 134.55363464 235.56538391 C140.74397996 228.86418486 142.90329576 221.26852611 142.72550964 212.26069641 C141.71145451 204.4633016 139.55012517 197.73045091 133.72550964 192.26069641 C121.50400818 183.13614005 107.10859415 180.92735624 92.19548035 181.03364563 C90.52824433 181.03328403 90.52824433 181.03328403 88.82732677 181.03291512 C85.26856356 181.03439482 81.71001609 181.04956553 78.15129089 181.06538391 C75.93852336 181.06832851 73.72575444 181.07036638 71.51298523 181.07148743 C63.35463864 181.08192641 55.19632197 181.10984893 47.03800964 181.13569641 C19.65832214 181.19757141 19.65832214 181.19757141 -8.27449036 181.26069641 C-8.27449036 122.19069641 -8.27449036 63.12069641 -8.27449036 2.26069641 C-4.68734117 0.46712182 -3.69216981 0.0103352 0 0 Z M48.72550964 55.26069641 C48.72550964 78.03069641 48.72550964 100.80069641 48.72550964 124.26069641 C60.72925964 124.32257141 60.72925964 124.32257141 72.97550964 124.38569641 C76.72716492 124.41300842 76.72716492 124.41300842 80.55461121 124.44087219 C82.57511685 124.44672277 84.59562488 124.45181698 86.61613464 124.45600891 C87.63433289 124.46624084 88.65253113 124.47647278 89.70158386 124.48701477 C104.27905163 124.49049056 119.29459616 121.95695765 130.72550964 112.26069641 C137.86914679 104.59584969 139.20622322 97.35972943 139.03410339 87.02241516 C138.29758388 78.04433557 134.40101056 71.2287743 127.72550964 65.26069641 C112.19973887 53.26224744 93.91110921 54.76436982 75.35050964 55.01069641 C66.56425964 55.09319641 57.77800964 55.17569641 48.72550964 55.26069641 Z " fill="#000000" transform="translate(300.2744903564453,291.7393035888672)"/>
<path d="M0 0 C2.5625 0.5 2.5625 0.5 4.02734375 2.54785156 C5.8343553 6.02278534 7.28807492 9.58260999 8.6875 13.234375 C8.98630569 14.00299866 9.28511139 14.77162231 9.5929718 15.5635376 C10.58715449 18.12403253 11.57479488 20.68700013 12.5625 23.25 C13.27195845 25.0808924 13.98184789 26.91161784 14.69213867 28.7421875 C16.20531209 32.64421484 17.71576179 36.54728112 19.22412109 40.45117188 C21.53572221 46.43317425 23.85490181 52.41221732 26.17578125 58.390625 C31.3831016 71.80677408 36.58220253 85.22610385 41.78112793 98.64550781 C44.6035437 105.93054849 47.42641177 113.21541367 50.25 120.5 C50.64643707 121.52279053 51.04287415 122.54558105 51.45132446 123.59936523 C57.1249436 138.23502464 62.81985681 152.86222328 68.53256226 167.48266602 C74.06617095 181.6459803 79.56915704 195.82102396 85.0625 210 C90.7493219 224.67771748 96.44539408 239.3517135 102.16921997 254.01504517 C103.17050807 256.58144797 104.17025923 259.14844481 105.16967773 261.71557617 C107.94113744 268.82897326 110.72620133 275.93485704 113.58984375 283.01171875 C114.0266748 284.09888184 114.46350586 285.18604492 114.91357422 286.30615234 C115.68813545 288.22835046 116.47148025 290.14704742 117.26611328 292.06103516 C117.59208496 292.87233887 117.91805664 293.68364258 118.25390625 294.51953125 C118.53435791 295.20120361 118.81480957 295.88287598 119.10375977 296.58520508 C119.6585434 298.9008879 119.3530324 300.2745869 118.5625 302.5 C116.86304575 304.19945425 114.68263532 303.66244906 112.35595703 303.69287109 C110.68885178 303.71696548 110.68885178 303.71696548 108.98806763 303.74154663 C103.90074115 303.78578057 98.81354776 303.82705487 93.72607422 303.85009766 C91.0369266 303.86344411 88.3485366 303.89130435 85.65966797 303.93212891 C81.79631532 303.98668933 77.9339977 304.00874022 74.0703125 304.0234375 C72.26084641 304.05744156 72.26084641 304.05744156 70.41482544 304.09213257 C69.29711761 304.08928253 68.17940979 304.0864325 67.02783203 304.08349609 C66.04267609 304.09158295 65.05752014 304.0996698 64.04251099 304.10800171 C61.5625 303.5 61.5625 303.5 59.83810425 301.27346802 C58.66120563 298.7146096 57.6085654 296.20194199 56.6875 293.54101562 C56.34789749 292.56921356 56.00829498 291.5974115 55.65840149 290.59616089 C55.11593025 289.017155 55.11593025 289.017155 54.5625 287.40625 C53.98057137 285.73551926 53.98057137 285.73551926 53.3868866 284.03103638 C52.32843532 280.99054971 51.27465258 277.9484902 50.22246933 274.90583038 C48.42682236 269.72044009 46.61657147 264.54011172 44.80837059 259.3590889 C44.34313802 258.02588272 43.87810381 256.69260731 43.41326332 255.35926437 C38.61034567 241.5839078 33.69373772 227.85042572 28.75 214.125 C22.15585873 195.80466874 15.66007764 177.4531391 9.2800293 159.05712891 C8.70886877 157.41046541 8.137663 155.76381761 7.56640625 154.1171875 C7.30089462 153.35173615 7.035383 152.58628479 6.76182556 151.79763794 C4.75049637 146.01148035 2.68677384 140.2457623 0.5625 134.5 C-4.16940459 145.0389807 -7.79730023 155.96028781 -11.53393555 166.87988281 C-13.52934855 172.70944496 -15.53813733 178.53439331 -17.546875 184.359375 C-17.95679688 185.54865601 -18.36671875 186.73793701 -18.7890625 187.96325684 C-22.77119311 199.49956156 -26.84497146 211.00248896 -30.9375 222.5 C-35.48931307 235.28920139 -40.00282544 248.09015709 -44.43359375 260.921875 C-44.84803741 262.12203247 -45.26248108 263.32218994 -45.68948364 264.55871582 C-47.70676189 270.40465132 -49.7192754 276.25218921 -51.7265625 282.1015625 C-52.4518014 284.20834074 -53.17706073 286.31511195 -53.90234375 288.421875 C-54.23173447 289.38615417 -54.56112518 290.35043335 -54.90049744 291.34393311 C-55.35955223 292.67560516 -55.35955223 292.67560516 -55.82788086 294.03417969 C-56.2239579 295.18935089 -56.2239579 295.18935089 -56.6280365 296.36785889 C-58.84329909 302.20289954 -58.84329909 302.20289954 -61.4375 303.5 C-63.18345441 303.59576742 -64.93306231 303.6279553 -66.68164062 303.62939453 C-67.77617554 303.63254669 -68.87071045 303.63569885 -69.99841309 303.63894653 C-71.77810486 303.63591019 -71.77810486 303.63591019 -73.59375 303.6328125 C-74.80695923 303.63376923 -76.02016846 303.63472595 -77.2701416 303.63571167 C-79.83911185 303.63639317 -82.40808382 303.63454097 -84.97705078 303.63037109 C-88.92093759 303.62502246 -92.86471051 303.63031714 -96.80859375 303.63671875 C-99.29947942 303.63605796 -101.79036502 303.63477679 -104.28125 303.6328125 C-105.46771118 303.63483673 -106.65417236 303.63686096 -107.87658691 303.63894653 C-108.97112183 303.63579437 -110.06565674 303.63264221 -111.19335938 303.62939453 C-112.15995483 303.62859894 -113.12655029 303.62780334 -114.12243652 303.62698364 C-116.4375 303.5 -116.4375 303.5 -118.4375 302.5 C-117.91103391 296.26364071 -116.41487859 291.15972556 -114.0703125 285.37890625 C-113.72419418 284.50332062 -113.37807587 283.62773499 -113.02146912 282.72561646 C-112.27085645 280.82988706 -111.51600049 278.93583342 -110.75735474 277.04330444 C-109.53690513 273.99864846 -108.32743389 270.94983365 -107.12084961 267.8996582 C-105.85001471 264.68733063 -104.57853467 261.47527626 -103.30375671 258.26451111 C-99.20521719 247.93963765 -95.18225438 237.58616857 -91.17507935 227.22555542 C-89.58871477 223.12416131 -88.00000384 219.02367746 -86.41142273 214.92314148 C-85.61141806 212.85801599 -84.81154206 210.79284064 -84.01179504 208.72761536 C-81.27378715 201.65712598 -78.53241307 194.58794923 -75.7890625 187.51953125 C-67.3167565 165.68806457 -58.86568106 143.84854168 -50.4375 122 C-41.58873977 99.06221588 -32.72455685 76.13050787 -23.82124329 53.21383667 C-21.51932591 47.28844463 -19.22163513 41.36143422 -16.92681885 35.43328857 C-15.43257062 31.57532106 -13.93528297 27.7185384 -12.43719482 23.86206055 C-11.73594897 22.05509227 -11.0359319 20.24764658 -10.33721924 18.43969727 C-9.38310358 15.97150594 -8.42454385 13.50508674 -7.46484375 11.0390625 C-7.18558548 10.31349152 -6.90632721 9.58792053 -6.61860657 8.84036255 C-3.44011363 0.70566433 -3.44011363 0.70566433 0 0 Z " fill="#000000" transform="translate(609.4375,425.5)"/>
</svg>
