<svg xmlns="http://www.w3.org/2000/svg" width="180" viewBox="0 0 88.546875 29.03125" height="60" version="1.0"><defs><clipPath id="prefix__a"><path d="M1.453 0h87.094v29.031H1.453zm0 0"/></clipPath></defs><g clip-path="url(#prefix__a)" fill="none"><path d="M1.453 0h87.094v29.031H1.453zm0 0"/><path d="M1.453 0h87.094v29.031H1.453zm0 0"/></g><path d="M17.219 7.105h3.156c1.781 0 2.96.305 3.547.907.582.593.875 1.312.875 2.156 0 .562-.125 1.094-.375 1.594-.242.5-.633.875-1.172 1.125.789.199 1.375.554 1.75 1.062.383.5.578 1.094.578 1.781 0 .719-.117 1.352-.344 1.89-.218.544-.683.997-1.39 1.36-.711.356-1.735.532-3.078.532h-3.547zm3.468 5.266c.79 0 1.352-.192 1.688-.578.344-.383.516-.88.516-1.485 0-1.062-.766-1.593-2.297-1.593h-1.516v3.656zm.329 5.547c1.03 0 1.722-.203 2.078-.61.351-.406.53-.925.53-1.562 0-.594-.202-1.05-.608-1.375-.407-.332-1.024-.5-1.844-.5h-2.094v4.047zm0 0M26.213 11.762h1.891v7.75h-1.89zm.938-1.454c-.356 0-.652-.113-.89-.343a1.211 1.211 0 01-.344-.875c0-.32.113-.594.343-.813.239-.226.535-.344.89-.344.333 0 .618.118.86.344.239.219.36.492.36.813 0 .343-.121.636-.36.875-.23.23-.515.343-.86.343zm0 0M31.715 13.824l.422-.61-1.875.048h-1.328v-1.5h6.03l-3.5 5.703-.421.64 1.828-.062 1.953-.031v1.5H28.2zm0 0" fill="#FFF"/><path d="M39.757 7.09l5.969 12.422h-2.172l-1.063-2.438h-5.687l-1.063 2.438h-2.109L39.57 7.09zm-.844 5.28l-1.36 3h4.188l-1.328-2.983-.i734-1.704h-.031zm0 0" fill="#FFF"/><path d="M47.732 19.683a7.59 7.59 0 01-1.688-.203c-.574-.144-.984-.316-1.234-.515l.61-1.422c.675.469 1.445.703 2.312.703.863 0 1.297-.254 1.297-.766a.6.6 0 00-.266-.515c-.18-.125-.496-.27-.953-.438l-.64-.234c-.68-.27-1.215-.594-1.61-.969-.398-.383-.594-.883-.594-1.5 0-.707.274-1.258.828-1.656.563-.406 1.313-.61 2.25-.61.457 0 .907.055 1.344.157.446.105.79.234 1.031.39l-.656 1.453c-.148-.144-.383-.27-.703-.375a3.207 3.207 0 00-1.062-.171c-.805 0-1.204.246-1.204.734 0 .273.102.48.313.625.219.137.566.289 1.047.453.05.012.226.074.531.188.719.28 1.25.605 1.594.968.351.356.531.813.531 1.375 0 .762-.293 1.34-.875 1.735-.574.398-1.309.593-2.203.593zm0 0M53.774 19.683a7.59 7.59 0 01-1.687-.203c-.575-.144-.985-.316-1.235-.515l.61-1.422c.675.469 1.445.703 2.312.703.863 0 1.297-.254 1.297-.766a.6.6 0 00-.266-.515c-.18-.125-.496-.27-.953-.438l-.64-.234c-.68-.27-1.215-.594-1.61-.969-.398-.383-.594-.883-.594-1.5 0-.707.274-1.258.829-1.656.562-.406 1.312-.61 2.25-.61.457 0 .906.055 1.343.157.446.105.79.234 1.032.39l-.657 1.453c-.148-.144-.382-.27-.703-.375a3.207 3.207 0 00-1.062-.171c-.805 0-1.203.246-1.203.734 0 .273.101.48.312.625.219.137.567.289 1.047.453.05.012.227.074.531.188.719.28 1.25.605 1.594.968.352.356.531.813.531 1.375 0 .762-.293 1.34-.875 1.735-.574.398-1.308.593-2.203.593zm0 0M57.285 11.762h1.89v7.75h-1.89zm.938-1.454c-.356 0-.653-.113-.891-.343a1.211 1.211 0 01-.344-.875c0-.32.113-.594.344-.813.238-.226.535-.344.89-.344.333 0 .618.118.86.344.238.219.36.492.36.813 0 .343-.122.636-.36.875-.23.23-.516.343-.86.343zm0 0M62.786 19.683a7.59 7.59 0 01-1.687-.203c-.574-.144-.984-.316-1.234-.515l.609-1.422c.676.469 1.445.703 2.312.703.864 0 1.297-.254 1.297-.766a.6.6 0 00-.265-.515c-.18-.125-.496-.27-.953-.438l-.641-.234c-.68-.27-1.215-.594-1.61-.969-.398-.383-.593-.883-.593-1.5 0-.707.273-1.258.828-1.656.562-.406 1.312-.61 2.25-.61.457 0 .906.055 1.344.157.445.105.789.234 1.031.39l-.656 1.453c-.149-.144-.383-.27-.703-.375a3.207 3.207 0 00-1.063-.171c-.805 0-1.203.246-1.203.734 0 .273.102.48.312.625.22.137.567.289 1.047.453.051.012.227.074.532.188.718.28 1.25.605 1.593.968.352.356.532.813.532 1.375 0 .762-.293 1.34-.875 1.735-.575.398-1.309.593-2.204.593zm0 0" fill="#FFF"/><path d="M66.844 13.246H65.47v-1.484h1.375V8.605l1.844-.406v3.563h1.781v1.484h-1.781v6.266h-1.844zm0 0M71.625 19.683c-.344 0-.637-.117-.875-.343a1.157 1.157 0 01-.344-.86c0-.343.113-.629.344-.86.226-.237.52-.358.875-.358.344 0 .629.12.86.359.226.23.343.516.343.86a1.172 1.172 0 01-1.203 1.202zm0 0M36.57 23.237c0 .18-.044.34-.126.485a.869.869 0 01-.312.328.936.936 0 01-.454.11.915.915 0 01-.453-.11.924.924 0 01-.453-.813.86.86 0 01.125-.468.828.828 0 01.328-.328.85.85 0 01.453-.125.87.87 0 01.454.125.77.77 0 01.312.328.894.894 0 01.125.468zm-.329 0a.68.68 0 00-.078-.328.477.477 0 00-.203-.218.545.545 0 00-.282-.079.613.613 0 00-.296.079.577.577 0 00-.204.218.638.638 0 00-.078.328c0 .125.024.235.078.329a.55.55 0 00.204.218.573.573 0 00.296.078.51.51 0 00.282-.078.46.46 0 00.203-.218.68.68 0 00.078-.329zm0 0M40.061 22.316c.406 0 .61.246.61.734v.922a.148.148 0 01-.047.11c-.024.03-.059.046-.11.046a.148.148 0 01-.109-.047.148.148 0 01-.047-.11v-.921a.474.474 0 00-.094-.313c-.062-.082-.164-.125-.297-.125a.515.515 0 00-.25.063.352.352 0 00-.171.156.378.378 0 00-.063.219v.922a.148.148 0 01-.047.11.154.154 0 01-.11.046.165.165 0 01-.124-.047.148.148 0 01-.047-.11V22.52c0-.051.016-.094.047-.125a.165.165 0 01.125-.047c.039 0 .078.015.11.047a.171.171 0 01.046.125v.11a.862.862 0 01.25-.22.615.615 0 01.328-.093zm0 0M43.73 23.972a.148.148 0 01-.047.11.171.171 0 01-.125.046.148.148 0 01-.11-.047.148.148 0 01-.046-.11v-2.187c0-.05.015-.093.047-.125a.165.165 0 01.125-.047c.039 0 .078.016.11.047a.171.171 0 01.046.125zm0 0M46.758 23.972a.148.148 0 01-.047.11.154.154 0 01-.11.046.165.165 0 01-.125-.047.148.148 0 01-.046-.11v-1.468c0-.05.015-.094.046-.125a.165.165 0 01.125-.047c.04 0 .079.016.11.047a.171.171 0 01.047.125zm-.172-1.86c-.063 0-.11-.007-.14-.03-.024-.032-.032-.071-.032-.126v-.047c0-.05.016-.086.047-.109.031-.031.078-.047.14-.047.063 0 .102.016.125.047.032.023.047.059.047.11v.046c0 .063-.015.106-.047.125-.023.024-.07.031-.14.031zm0 0M50.338 22.316c.406 0 .61.246.61.734v.922a.148.148 0 01-.048.11c-.023.03-.058.046-.11.046a.148.148 0 01-.109-.047.148.148 0 01-.046-.11v-.921a.474.474 0 00-.094-.313c-.063-.082-.164-.125-.297-.125a.515.515 0 00-.25.063.352.352 0 00-.172.156.378.378 0 00-.062.219v.922a.148.148 0 01-.047.11.154.154 0 01-.11.046.165.165 0 01-.125-.047.148.148 0 01-.047-.11V22.52c0-.051.016-.094.047-.125a.165.165 0 01.125-.047c.04 0 .078.015.11.047a.171.171 0 01.047.125v.11a.862.862 0 01.25-.22.615.615 0 01.328-.093zm0 0M55.21 23.175a.148.148 0 01-.047.11.18.18 0 01-.11.03H53.85a.65.65 0 00.188.407.62.62 0 00.406.14.61.61 0 00.453-.171.179.179 0 01.094-.032c.039 0 .07.016.094.047a.111.111 0 01.046.094c0 .055-.027.094-.078.125a.892.892 0 01-.265.172.941.941 0 01-.328.062c-.18 0-.34-.035-.485-.109a.943.943 0 01-.328-.328.945.945 0 01-.11-.469c0-.187.036-.351.11-.5a.874.874 0 01.313-.328.893.893 0 01.421-.11c.145 0 .282.04.407.11.125.074.222.18.297.312a.787.787 0 01.125.438zm-.829-.563a.535.535 0 00-.328.11c-.093.062-.156.172-.187.328h1v-.031a.397.397 0 00-.156-.282.485.485 0 00-.329-.125zm0 0" fill="#FFF"/></svg>