<svg xmlns="http://www.w3.org/2000/svg" xmlns:xlink="http://www.w3.org/1999/xlink" width="120" zoomAndPan="magnify" viewBox="0 0 90 30.000001" height="40" preserveAspectRatio="xMidYMid meet" version="1.0"><defs><g/><clipPath id="31a973b17e"><path d="M 1.453125 0 L 88.546875 0 L 88.546875 29.03125 L 1.453125 29.03125 Z M 1.453125 0 " clip-rule="nonzero"/></clipPath></defs><g clip-path="url(#31a973b17e)"><path fill="#ffffff" d="M 1.453125 0 L 88.546875 0 L 88.546875 29.03125 L 1.453125 29.03125 Z M 1.453125 0 " fill-opacity="1" fill-rule="nonzero"/><path fill="#000000" d="M 1.453125 0 L 88.546875 0 L 88.546875 29.03125 L 1.453125 29.03125 Z M 1.453125 0 " fill-opacity="1" fill-rule="nonzero"/></g><g fill="#ffffff" fill-opacity="1"><g transform="translate(15.906188, 19.511519)"><g><path d="M 1.3125 -12.40625 L 4.46875 -12.40625 C 6.25 -12.40625 7.429688 -12.101562 8.015625 -11.5 C 8.597656 -10.90625 8.890625 -10.1875 8.890625 -9.34375 C 8.890625 -8.78125 8.765625 -8.25 8.515625 -7.75 C 8.273438 -7.25 7.882812 -6.875 7.34375 -6.625 C 8.132812 -6.425781 8.71875 -6.070312 9.09375 -5.5625 C 9.476562 -5.0625 9.671875 -4.46875 9.671875 -3.78125 C 9.671875 -3.0625 9.554688 -2.429688 9.328125 -1.890625 C 9.109375 -1.347656 8.644531 -0.894531 7.9375 -0.53125 C 7.226562 -0.175781 6.203125 0 4.859375 0 L 1.3125 0 Z M 4.78125 -7.140625 C 5.570312 -7.140625 6.132812 -7.332031 6.46875 -7.71875 C 6.8125 -8.101562 6.984375 -8.597656 6.984375 -9.203125 C 6.984375 -10.265625 6.21875 -10.796875 4.6875 -10.796875 L 3.171875 -10.796875 L 3.171875 -7.140625 Z M 5.109375 -1.59375 C 6.140625 -1.59375 6.832031 -1.796875 7.1875 -2.203125 C 7.539062 -2.609375 7.71875 -3.128906 7.71875 -3.765625 C 7.71875 -4.359375 7.515625 -4.816406 7.109375 -5.140625 C 6.703125 -5.472656 6.085938 -5.640625 5.265625 -5.640625 L 3.171875 -5.640625 L 3.171875 -1.59375 Z M 5.109375 -1.59375 "/></g></g></g><g fill="#ffffff" fill-opacity="1"><g transform="translate(24.88527, 19.511519)"><g><path d="M 1.328125 -7.75 L 3.21875 -7.75 L 3.21875 0 L 1.328125 0 Z M 2.265625 -9.203125 C 1.910156 -9.203125 1.613281 -9.316406 1.375 -9.546875 C 1.144531 -9.785156 1.03125 -10.078125 1.03125 -10.421875 C 1.03125 -10.742188 1.144531 -11.015625 1.375 -11.234375 C 1.613281 -11.460938 1.910156 -11.578125 2.265625 -11.578125 C 2.597656 -11.578125 2.882812 -11.460938 3.125 -11.234375 C 3.363281 -11.015625 3.484375 -10.742188 3.484375 -10.421875 C 3.484375 -10.078125 3.363281 -9.785156 3.125 -9.546875 C 2.894531 -9.316406 2.609375 -9.203125 2.265625 -9.203125 Z M 2.265625 -9.203125 "/></g></g></g><g fill="#ffffff" fill-opacity="1"><g transform="translate(27.855483, 19.511519)"><g><path d="M 3.859375 -5.6875 L 4.28125 -6.296875 L 2.40625 -6.25 L 1.078125 -6.25 L 1.078125 -7.75 L 7.109375 -7.75 L 3.609375 -2.046875 L 3.1875 -1.40625 L 5.015625 -1.46875 L 6.96875 -1.5 L 6.96875 0 L 0.34375 0 Z M 3.859375 -5.6875 "/></g></g></g><g fill="#ffffff" fill-opacity="1"><g transform="translate(33.897645, 19.511519)"><g><path d="M 5.859375 -12.421875 L 11.828125 0 L 9.65625 0 L 8.59375 -2.4375 L 2.90625 -2.4375 L 1.84375 0 L -0.265625 0 L 5.671875 -12.421875 Z M 5.015625 -7.140625 L 3.65625 -4.140625 L 7.84375 -4.140625 L 6.515625 -7.125 L 5.78125 -8.828125 L 5.75 -8.828125 Z M 5.015625 -7.140625 "/></g></g></g><g fill="#ffffff" fill-opacity="1"><g transform="translate(43.872579, 19.511519)"><g><path d="M 3.859375 0.171875 C 3.316406 0.171875 2.753906 0.101562 2.171875 -0.03125 C 1.597656 -0.175781 1.1875 -0.347656 0.9375 -0.546875 L 1.546875 -1.96875 C 2.222656 -1.5 2.992188 -1.265625 3.859375 -1.265625 C 4.722656 -1.265625 5.15625 -1.519531 5.15625 -2.03125 C 5.15625 -2.25 5.066406 -2.421875 4.890625 -2.546875 C 4.710938 -2.671875 4.394531 -2.816406 3.9375 -2.984375 L 3.296875 -3.21875 C 2.617188 -3.488281 2.082031 -3.8125 1.6875 -4.1875 C 1.289062 -4.570312 1.09375 -5.070312 1.09375 -5.6875 C 1.09375 -6.394531 1.367188 -6.945312 1.921875 -7.34375 C 2.484375 -7.75 3.234375 -7.953125 4.171875 -7.953125 C 4.628906 -7.953125 5.078125 -7.898438 5.515625 -7.796875 C 5.960938 -7.691406 6.304688 -7.5625 6.546875 -7.40625 L 5.890625 -5.953125 C 5.742188 -6.097656 5.507812 -6.222656 5.1875 -6.328125 C 4.863281 -6.441406 4.507812 -6.5 4.125 -6.5 C 3.320312 -6.5 2.921875 -6.253906 2.921875 -5.765625 C 2.921875 -5.492188 3.023438 -5.285156 3.234375 -5.140625 C 3.453125 -5.003906 3.800781 -4.851562 4.28125 -4.6875 C 4.332031 -4.675781 4.507812 -4.613281 4.8125 -4.5 C 5.53125 -4.21875 6.0625 -3.894531 6.40625 -3.53125 C 6.757812 -3.175781 6.9375 -2.71875 6.9375 -2.15625 C 6.9375 -1.394531 6.644531 -0.816406 6.0625 -0.421875 C 5.488281 -0.0234375 4.753906 0.171875 3.859375 0.171875 Z M 3.859375 0.171875 "/></g></g></g><g fill="#ffffff" fill-opacity="1"><g transform="translate(49.914739, 19.511519)"><g><path d="M 3.859375 0.171875 C 3.316406 0.171875 2.753906 0.101562 2.171875 -0.03125 C 1.597656 -0.175781 1.1875 -0.347656 0.9375 -0.546875 L 1.546875 -1.96875 C 2.222656 -1.5 2.992188 -1.265625 3.859375 -1.265625 C 4.722656 -1.265625 5.15625 -1.519531 5.15625 -2.03125 C 5.15625 -2.25 5.066406 -2.421875 4.890625 -2.546875 C 4.710938 -2.671875 4.394531 -2.816406 3.9375 -2.984375 L 3.296875 -3.21875 C 2.617188 -3.488281 2.082031 -3.8125 1.6875 -4.1875 C 1.289062 -4.570312 1.09375 -5.070312 1.09375 -5.6875 C 1.09375 -6.394531 1.367188 -6.945312 1.921875 -7.34375 C 2.484375 -7.75 3.234375 -7.953125 4.171875 -7.953125 C 4.628906 -7.953125 5.078125 -7.898438 5.515625 -7.796875 C 5.960938 -7.691406 6.304688 -7.5625 6.546875 -7.40625 L 5.890625 -5.953125 C 5.742188 -6.097656 5.507812 -6.222656 5.1875 -6.328125 C 4.863281 -6.441406 4.507812 -6.5 4.125 -6.5 C 3.320312 -6.5 2.921875 -6.253906 2.921875 -5.765625 C 2.921875 -5.492188 3.023438 -5.285156 3.234375 -5.140625 C 3.453125 -5.003906 3.800781 -4.851562 4.28125 -4.6875 C 4.332031 -4.675781 4.507812 -4.613281 4.8125 -4.5 C 5.53125 -4.21875 6.0625 -3.894531 6.40625 -3.53125 C 6.757812 -3.175781 6.9375 -2.71875 6.9375 -2.15625 C 6.9375 -1.394531 6.644531 -0.816406 6.0625 -0.421875 C 5.488281 -0.0234375 4.753906 0.171875 3.859375 0.171875 Z M 3.859375 0.171875 "/></g></g></g><g fill="#ffffff" fill-opacity="1"><g transform="translate(55.956898, 19.511519)"><g><path d="M 1.328125 -7.75 L 3.21875 -7.75 L 3.21875 0 L 1.328125 0 Z M 2.265625 -9.203125 C 1.910156 -9.203125 1.613281 -9.316406 1.375 -9.546875 C 1.144531 -9.785156 1.03125 -10.078125 1.03125 -10.421875 C 1.03125 -10.742188 1.144531 -11.015625 1.375 -11.234375 C 1.613281 -11.460938 1.910156 -11.578125 2.265625 -11.578125 C 2.597656 -11.578125 2.882812 -11.460938 3.125 -11.234375 C 3.363281 -11.015625 3.484375 -10.742188 3.484375 -10.421875 C 3.484375 -10.078125 3.363281 -9.785156 3.125 -9.546875 C 2.894531 -9.316406 2.609375 -9.203125 2.265625 -9.203125 Z M 2.265625 -9.203125 "/></g></g></g><g fill="#ffffff" fill-opacity="1"><g transform="translate(58.92711, 19.511519)"><g><path d="M 3.859375 0.171875 C 3.316406 0.171875 2.753906 0.101562 2.171875 -0.03125 C 1.597656 -0.175781 1.1875 -0.347656 0.9375 -0.546875 L 1.546875 -1.96875 C 2.222656 -1.5 2.992188 -1.265625 3.859375 -1.265625 C 4.722656 -1.265625 5.15625 -1.519531 5.15625 -2.03125 C 5.15625 -2.25 5.066406 -2.421875 4.890625 -2.546875 C 4.710938 -2.671875 4.394531 -2.816406 3.9375 -2.984375 L 3.296875 -3.21875 C 2.617188 -3.488281 2.082031 -3.8125 1.6875 -4.1875 C 1.289062 -4.570312 1.09375 -5.070312 1.09375 -5.6875 C 1.09375 -6.394531 1.367188 -6.945312 1.921875 -7.34375 C 2.484375 -7.75 3.234375 -7.953125 4.171875 -7.953125 C 4.628906 -7.953125 5.078125 -7.898438 5.515625 -7.796875 C 5.960938 -7.691406 6.304688 -7.5625 6.546875 -7.40625 L 5.890625 -5.953125 C 5.742188 -6.097656 5.507812 -6.222656 5.1875 -6.328125 C 4.863281 -6.441406 4.507812 -6.5 4.125 -6.5 C 3.320312 -6.5 2.921875 -6.253906 2.921875 -5.765625 C 2.921875 -5.492188 3.023438 -5.285156 3.234375 -5.140625 C 3.453125 -5.003906 3.800781 -4.851562 4.28125 -4.6875 C 4.332031 -4.675781 4.507812 -4.613281 4.8125 -4.5 C 5.53125 -4.21875 6.0625 -3.894531 6.40625 -3.53125 C 6.757812 -3.175781 6.9375 -2.71875 6.9375 -2.15625 C 6.9375 -1.394531 6.644531 -0.816406 6.0625 -0.421875 C 5.488281 -0.0234375 4.753906 0.171875 3.859375 0.171875 Z M 3.859375 0.171875 "/></g></g></g><g fill="#ffffff" fill-opacity="1"><g transform="translate(64.969269, 19.511519)"><g><path d="M 1.875 -6.265625 L 0.5 -6.265625 L 0.5 -7.75 L 1.875 -7.75 L 1.875 -10.90625 L 3.71875 -11.3125 L 3.71875 -7.75 L 5.5 -7.75 L 5.5 -6.265625 L 3.71875 -6.265625 L 3.71875 0 L 1.875 0 Z M 1.875 -6.265625 "/></g></g></g><g fill="#ffffff" fill-opacity="1"><g transform="translate(69.171637, 19.511519)"><g><path d="M 2.453125 0.171875 C 2.109375 0.171875 1.816406 0.0546875 1.578125 -0.171875 C 1.347656 -0.398438 1.234375 -0.6875 1.234375 -1.03125 C 1.234375 -1.375 1.347656 -1.660156 1.578125 -1.890625 C 1.804688 -2.128906 2.097656 -2.25 2.453125 -2.25 C 2.796875 -2.25 3.082031 -2.128906 3.3125 -1.890625 C 3.539062 -1.660156 3.65625 -1.375 3.65625 -1.03125 C 3.65625 -0.6875 3.539062 -0.398438 3.3125 -0.171875 C 3.082031 0.0546875 2.796875 0.171875 2.453125 0.171875 Z M 2.453125 0.171875 "/></g></g></g><g fill="#ffffff" fill-opacity="1"><g transform="translate(34.647243, 24.128075)"><g><path d="M 1.921875 -0.890625 C 1.921875 -0.710938 1.878906 -0.550781 1.796875 -0.40625 C 1.722656 -0.269531 1.617188 -0.160156 1.484375 -0.078125 C 1.347656 -0.00390625 1.195312 0.03125 1.03125 0.03125 C 0.863281 0.03125 0.710938 -0.00390625 0.578125 -0.078125 C 0.441406 -0.160156 0.332031 -0.269531 0.25 -0.40625 C 0.164062 -0.550781 0.125 -0.710938 0.125 -0.890625 C 0.125 -1.066406 0.164062 -1.222656 0.25 -1.359375 C 0.332031 -1.503906 0.441406 -1.613281 0.578125 -1.6875 C 0.710938 -1.769531 0.863281 -1.8125 1.03125 -1.8125 C 1.195312 -1.8125 1.347656 -1.769531 1.484375 -1.6875 C 1.617188 -1.613281 1.722656 -1.503906 1.796875 -1.359375 C 1.878906 -1.222656 1.921875 -1.066406 1.921875 -0.890625 Z M 1.59375 -0.890625 C 1.59375 -1.015625 1.566406 -1.125 1.515625 -1.21875 C 1.472656 -1.3125 1.40625 -1.382812 1.3125 -1.4375 C 1.226562 -1.488281 1.132812 -1.515625 1.03125 -1.515625 C 0.925781 -1.515625 0.828125 -1.488281 0.734375 -1.4375 C 0.648438 -1.382812 0.582031 -1.3125 0.53125 -1.21875 C 0.476562 -1.125 0.453125 -1.015625 0.453125 -0.890625 C 0.453125 -0.765625 0.476562 -0.65625 0.53125 -0.5625 C 0.582031 -0.46875 0.648438 -0.394531 0.734375 -0.34375 C 0.828125 -0.289062 0.925781 -0.265625 1.03125 -0.265625 C 1.132812 -0.265625 1.226562 -0.289062 1.3125 -0.34375 C 1.40625 -0.394531 1.472656 -0.46875 1.515625 -0.5625 C 1.566406 -0.65625 1.59375 -0.765625 1.59375 -0.890625 Z M 1.59375 -0.890625 "/></g></g></g><g fill="#ffffff" fill-opacity="1"><g transform="translate(38.920583, 24.128075)"><g><path d="M 1.140625 -1.8125 C 1.546875 -1.8125 1.75 -1.566406 1.75 -1.078125 L 1.75 -0.15625 C 1.75 -0.113281 1.734375 -0.078125 1.703125 -0.046875 C 1.679688 -0.015625 1.644531 0 1.59375 0 C 1.550781 0 1.515625 -0.015625 1.484375 -0.046875 C 1.453125 -0.078125 1.4375 -0.113281 1.4375 -0.15625 L 1.4375 -1.078125 C 1.4375 -1.210938 1.40625 -1.316406 1.34375 -1.390625 C 1.28125 -1.472656 1.179688 -1.515625 1.046875 -1.515625 C 0.953125 -1.515625 0.867188 -1.492188 0.796875 -1.453125 C 0.722656 -1.421875 0.664062 -1.367188 0.625 -1.296875 C 0.582031 -1.234375 0.5625 -1.160156 0.5625 -1.078125 L 0.5625 -0.15625 C 0.5625 -0.113281 0.546875 -0.078125 0.515625 -0.046875 C 0.484375 -0.015625 0.445312 0 0.40625 0 C 0.351562 0 0.3125 -0.015625 0.28125 -0.046875 C 0.25 -0.078125 0.234375 -0.113281 0.234375 -0.15625 L 0.234375 -1.609375 C 0.234375 -1.660156 0.25 -1.703125 0.28125 -1.734375 C 0.3125 -1.765625 0.351562 -1.78125 0.40625 -1.78125 C 0.445312 -1.78125 0.484375 -1.765625 0.515625 -1.734375 C 0.546875 -1.703125 0.5625 -1.660156 0.5625 -1.609375 L 0.5625 -1.5 C 0.625 -1.582031 0.707031 -1.65625 0.8125 -1.71875 C 0.914062 -1.78125 1.023438 -1.8125 1.140625 -1.8125 Z M 1.140625 -1.8125 "/></g></g></g><g fill="#ffffff" fill-opacity="1"><g transform="translate(43.136191, 24.128075)"><g><path d="M 0.59375 -0.15625 C 0.59375 -0.113281 0.578125 -0.078125 0.546875 -0.046875 C 0.515625 -0.015625 0.472656 0 0.421875 0 C 0.378906 0 0.34375 -0.015625 0.3125 -0.046875 C 0.28125 -0.078125 0.265625 -0.113281 0.265625 -0.15625 L 0.265625 -2.34375 C 0.265625 -2.394531 0.28125 -2.4375 0.3125 -2.46875 C 0.34375 -2.5 0.382812 -2.515625 0.4375 -2.515625 C 0.476562 -2.515625 0.515625 -2.5 0.546875 -2.46875 C 0.578125 -2.4375 0.59375 -2.394531 0.59375 -2.34375 Z M 0.59375 -0.15625 "/></g></g></g><g fill="#ffffff" fill-opacity="1"><g transform="translate(46.210797, 24.128075)"><g><path d="M 0.546875 -0.15625 C 0.546875 -0.113281 0.53125 -0.078125 0.5 -0.046875 C 0.46875 -0.015625 0.429688 0 0.390625 0 C 0.335938 0 0.296875 -0.015625 0.265625 -0.046875 C 0.234375 -0.078125 0.21875 -0.113281 0.21875 -0.15625 L 0.21875 -1.625 C 0.21875 -1.675781 0.234375 -1.71875 0.265625 -1.75 C 0.296875 -1.78125 0.335938 -1.796875 0.390625 -1.796875 C 0.429688 -1.796875 0.46875 -1.78125 0.5 -1.75 C 0.53125 -1.71875 0.546875 -1.675781 0.546875 -1.625 Z M 0.375 -2.015625 C 0.3125 -2.015625 0.265625 -2.023438 0.234375 -2.046875 C 0.210938 -2.078125 0.203125 -2.117188 0.203125 -2.171875 L 0.203125 -2.21875 C 0.203125 -2.269531 0.21875 -2.304688 0.25 -2.328125 C 0.28125 -2.359375 0.328125 -2.375 0.390625 -2.375 C 0.453125 -2.375 0.492188 -2.359375 0.515625 -2.328125 C 0.546875 -2.304688 0.5625 -2.269531 0.5625 -2.21875 L 0.5625 -2.171875 C 0.5625 -2.109375 0.546875 -2.066406 0.515625 -2.046875 C 0.492188 -2.023438 0.445312 -2.015625 0.375 -2.015625 Z M 0.375 -2.015625 "/></g></g></g><g fill="#ffffff" fill-opacity="1"><g transform="translate(49.197109, 24.128075)"><g><path d="M 1.140625 -1.8125 C 1.546875 -1.8125 1.75 -1.566406 1.75 -1.078125 L 1.75 -0.15625 C 1.75 -0.113281 1.734375 -0.078125 1.703125 -0.046875 C 1.679688 -0.015625 1.644531 0 1.59375 0 C 1.550781 0 1.515625 -0.015625 1.484375 -0.046875 C 1.453125 -0.078125 1.4375 -0.113281 1.4375 -0.15625 L 1.4375 -1.078125 C 1.4375 -1.210938 1.40625 -1.316406 1.34375 -1.390625 C 1.28125 -1.472656 1.179688 -1.515625 1.046875 -1.515625 C 0.953125 -1.515625 0.867188 -1.492188 0.796875 -1.453125 C 0.722656 -1.421875 0.664062 -1.367188 0.625 -1.296875 C 0.582031 -1.234375 0.5625 -1.160156 0.5625 -1.078125 L 0.5625 -0.15625 C 0.5625 -0.113281 0.546875 -0.078125 0.515625 -0.046875 C 0.484375 -0.015625 0.445312 0 0.40625 0 C 0.351562 0 0.3125 -0.015625 0.28125 -0.046875 C 0.25 -0.078125 0.234375 -0.113281 0.234375 -0.15625 L 0.234375 -1.609375 C 0.234375 -1.660156 0.25 -1.703125 0.28125 -1.734375 C 0.3125 -1.765625 0.351562 -1.78125 0.40625 -1.78125 C 0.445312 -1.78125 0.484375 -1.765625 0.515625 -1.734375 C 0.546875 -1.703125 0.5625 -1.660156 0.5625 -1.609375 L 0.5625 -1.5 C 0.625 -1.582031 0.707031 -1.65625 0.8125 -1.71875 C 0.914062 -1.78125 1.023438 -1.8125 1.140625 -1.8125 Z M 1.140625 -1.8125 "/></g></g></g><g fill="#ffffff" fill-opacity="1"><g transform="translate(53.412717, 24.128075)"><g><path d="M 1.796875 -0.953125 C 1.796875 -0.910156 1.78125 -0.875 1.75 -0.84375 C 1.71875 -0.820312 1.679688 -0.8125 1.640625 -0.8125 L 0.4375 -0.8125 C 0.457031 -0.644531 0.519531 -0.507812 0.625 -0.40625 C 0.738281 -0.3125 0.875 -0.265625 1.03125 -0.265625 C 1.144531 -0.265625 1.234375 -0.28125 1.296875 -0.3125 C 1.367188 -0.34375 1.429688 -0.382812 1.484375 -0.4375 C 1.515625 -0.457031 1.546875 -0.46875 1.578125 -0.46875 C 1.617188 -0.46875 1.648438 -0.453125 1.671875 -0.421875 C 1.703125 -0.398438 1.71875 -0.367188 1.71875 -0.328125 C 1.71875 -0.273438 1.691406 -0.234375 1.640625 -0.203125 C 1.578125 -0.140625 1.488281 -0.0820312 1.375 -0.03125 C 1.269531 0.0078125 1.160156 0.03125 1.046875 0.03125 C 0.867188 0.03125 0.707031 -0.00390625 0.5625 -0.078125 C 0.425781 -0.160156 0.316406 -0.269531 0.234375 -0.40625 C 0.160156 -0.539062 0.125 -0.695312 0.125 -0.875 C 0.125 -1.0625 0.160156 -1.226562 0.234375 -1.375 C 0.316406 -1.519531 0.421875 -1.628906 0.546875 -1.703125 C 0.679688 -1.773438 0.820312 -1.8125 0.96875 -1.8125 C 1.113281 -1.8125 1.25 -1.773438 1.375 -1.703125 C 1.5 -1.628906 1.597656 -1.523438 1.671875 -1.390625 C 1.753906 -1.265625 1.796875 -1.117188 1.796875 -0.953125 Z M 0.96875 -1.515625 C 0.84375 -1.515625 0.734375 -1.476562 0.640625 -1.40625 C 0.546875 -1.34375 0.484375 -1.234375 0.453125 -1.078125 L 1.453125 -1.078125 L 1.453125 -1.109375 C 1.441406 -1.222656 1.390625 -1.316406 1.296875 -1.390625 C 1.203125 -1.472656 1.09375 -1.515625 0.96875 -1.515625 Z M 0.96875 -1.515625 "/></g></g></g></svg>