<svg xmlns="http://www.w3.org/2000/svg" width="100" height="34" fill="none" xmlns:v="https://vecta.io/nano"><g clip-path="url(#A)"><g fill="#27397d"><path d="M42.563 18.889c.377.523.566 1.149.566 1.878s-.191 1.355-.572 1.812c-.212.255-.527.489-.942.701.629.229 1.105.59 1.425 1.087s.481 1.096.481 1.803-.184 1.383-.55 1.962a3.4 3.4 0 0 1-.873.968c-.394.3-.858.506-1.394.618a8.52 8.52 0 0 1-1.743.166h-5.559V17.579h5.963c1.504.023 2.571.459 3.198 1.311v-.002zm-6.7.826v2.714h2.999c.536 0 .97-.102 1.306-.304s.502-.563.502-1.081c0-.573-.222-.952-.663-1.136-.381-.128-.868-.193-1.457-.193h-2.685-.002zm0 4.751v3.281h2.996c.534 0 .951-.072 1.249-.217.54-.267.811-.779.811-1.536 0-.639-.261-1.079-.786-1.319-.292-.134-.703-.202-1.233-.208h-3.037.002zm11.714 5.417h-2.562V17.579h2.562v12.304zm1.9-12.304h2.579v10.093h6.16v2.211h-8.738V17.579zm9.957 0h2.579v10.093h6.16v2.211h-8.738V17.579zm18.236 6.977c-.722.601-1.754.901-3.094.901h-2.569v4.424h-2.562V17.577h5.298c1.22 0 2.194.318 2.922.951s1.089 1.618 1.089 2.948c0 1.453-.362 2.479-1.084 3.08zm-1.969-4.434c-.326-.272-.784-.41-1.372-.41h-2.323v3.623h2.323c.587 0 1.046-.147 1.372-.442s.489-.762.489-1.402-.163-1.096-.489-1.368zm6.868-2.543h2.918l4.365 12.304h-2.795l-.815-2.529H81.7l-.836 2.529h-2.696l4.405-12.304h-.004zm-.171 7.656h3.16L84 20.393l-1.601 4.842zm13.975-7.656h2.922l-4.127 7.691v4.613h-2.579V25.27l-4.269-7.691h3.039l2.562 5.359 2.452-5.359zM39.21 3.339c.587 0 1.124.051 1.607.155s.898.274 1.245.508.614.548.803.939.286.873.286 1.448c0 .62-.142 1.138-.424 1.552s-.699.752-1.252 1.017c.76.217 1.328.601 1.701 1.147s.561 1.204.561 1.973c0 .62-.121 1.158-.362 1.612s-.568.824-.976 1.111a4.32 4.32 0 0 1-1.4.639c-.525.138-1.063.208-1.616.208h-5.98V3.339h5.805.002zm-.347 4.981c.485 0 .881-.115 1.192-.344s.466-.603.466-1.121c0-.287-.051-.523-.155-.707s-.242-.327-.415-.431a1.71 1.71 0 0 0-.597-.215 4.01 4.01 0 0 0-.699-.06h-2.541V8.32h2.747.002zm.155 5.221a3.68 3.68 0 0 0 .76-.077c.243-.051.455-.138.639-.259a1.3 1.3 0 0 0 .44-.491c.11-.208.165-.471.165-.794 0-.631-.178-1.083-.536-1.353s-.83-.404-1.417-.404h-2.956v3.379h2.903.004zm8.57-10.202v4.723h4.994V3.339h2.713v12.306h-2.713v-5.308h-4.994v5.308h-2.713V3.339h2.713zm15.901 0l4.614 12.306h-2.815l-.934-2.74H59.74l-.966 2.74h-2.73L60.71 3.339h2.781-.002zm.155 7.55l-1.556-4.515h-.034l-1.607 4.515h3.196zm11.835-7.55c.553 0 1.052.089 1.495.266a3.41 3.41 0 0 1 1.141.733c.316.31.559.669.726 1.077a3.45 3.45 0 0 1 .25 1.319c0 .724-.153 1.349-.459 1.878s-.803.932-1.495 1.208v.034c.333.093.61.232.83.421a2.35 2.35 0 0 1 .536.673 3.15 3.15 0 0 1 .303.854 7.81 7.81 0 0 1 .131.932l.034.69.061.809a5.49 5.49 0 0 0 .138.784c.062.247.159.457.286.629h-2.713c-.15-.391-.243-.856-.277-1.396l-.155-1.552c-.093-.642-.288-1.115-.587-1.413s-.79-.448-1.468-.448h-2.713v4.81H68.83V3.339h6.652-.002zm-.966 5.567c.621 0 1.088-.138 1.4-.414s.466-.724.466-1.344-.155-1.032-.466-1.3-.777-.404-1.4-.404H71.54v3.464h2.973v-.002zm12.593-5.567l4.614 12.306h-2.817l-.934-2.74h-4.614l-.968 2.74h-2.73l4.667-12.306h2.781.002zm.155 7.55l-1.555-4.515h-.034l-1.607 4.515h3.196zm2.628-5.274V3.339h10.108v2.275h-3.698v10.031h-2.713V5.615h-3.698.002z"/></g><path d="M7.023 7.351h4.892c.55 0 1.078.045 1.588.138s.961.253 1.353.488.705.561.94.977.352.951.352 1.603c0 1.174-.352 2.022-1.057 2.542 1.815.35 3.162.722 4.587 1.408a6.11 6.11 0 0 0 1.468-1.487c.64-.939.961-2.111.961-3.519 0-1.302-.216-2.396-.646-3.284a5.37 5.37 0 0 0-1.823-2.13c-.783-.533-1.724-.918-2.821-1.153s-2.313-.352-3.645-.352H7.025v4.77h-.002z" fill="#f9b52f"/><path d="M12.388 13.881H6.154V7.351h.002v-4.77H0v27.914h13.562c1.254 0 2.474-.155 3.664-.469s2.247-.796 3.174-1.446 1.665-1.493 2.215-2.521.822-2.249.822-3.657c0-1.744-.457-3.215-1.273-4.477-1.576-2.436-4.996-4.046-9.78-4.046h.004zm4.528 9.969a2.93 2.93 0 0 1-1 1.115c-.419.274-.902.469-1.449.586s-1.124.176-1.724.176H6.156v-7.663h6.703c1.334 0 2.404.308 3.215.918s1.215 1.635 1.215 3.069c0 .729-.123 1.329-.371 1.797l-.002.002z" fill="#f17922"/><path d="M28.433 33.077c-.191 0-.347-.155-.347-.346V.346c0-.191.155-.346.347-.346s.347.155.347.346v32.385c0 .191-.155.346-.347.346z" fill="#787a7c"/></g><defs><clipPath id="A"><path fill="#fff" d="M0 0h100v33.077H0z"/></clipPath></defs></svg>