<svg xmlns="http://www.w3.org/2000/svg" width="145.784" height="21.206" viewBox="0 0 145.784 21.206">
  <g id="Easebuzz_Logo_Unit_-_White_Text" data-name="Easebuzz Logo Unit - White Text" transform="translate(-10 -5)">
    <path id="Path_1" data-name="Path 1" d="M425,32.763V13.547a1.151,1.151,0,0,1,1.147-1.147h13.109l-.015,3.463h-9.813v4.945h8.522v3.4H429.4v5.051l10,.015v3.494Z" transform="translate(-383.48 -6.838)" fill="#fff"/>
    <path id="Path_2" data-name="Path 2" d="M632.8,100.222a5.322,5.322,0,0,1-3.494-1.155,4.028,4.028,0,0,1-1.405-3.3,4.157,4.157,0,0,1,1.77-3.631c1.192-.835,3.068-1.268,5.643-1.3l1.808-.03v-.873a1.958,1.958,0,0,0-.592-1.534,2.47,2.47,0,0,0-1.8-.532,3.9,3.9,0,0,0-1.717.425,2.19,2.19,0,0,0-1.094,1.42h-3.4a4.083,4.083,0,0,1,1.9-3.494,8.288,8.288,0,0,1,4.5-1.124q3.338,0,4.732,1.238a4.242,4.242,0,0,1,1.405,3.365V99.941H637.3V97.435a4.545,4.545,0,0,1-1.868,2.18A5.417,5.417,0,0,1,632.8,100.222Zm1.375-2.7a3.16,3.16,0,0,0,2.514-1.238,1.927,1.927,0,0,0,.433-1.2V92.923l-1.474.03a7.932,7.932,0,0,0-1.906.243,3.14,3.14,0,0,0-1.436.76,1.878,1.878,0,0,0-.532,1.405,1.94,1.94,0,0,0,.691,1.587A2.622,2.622,0,0,0,634.174,97.518Z" transform="translate(-570.969 -74.016)" fill="#fff"/>
    <path id="Path_3" data-name="Path 3" d="M823.632,100.222a8.757,8.757,0,0,1-2.924-.494,5.868,5.868,0,0,1-2.37-1.58,5.186,5.186,0,0,1-1.238-2.8h3.555a2.213,2.213,0,0,0,1.177,1.618,4.4,4.4,0,0,0,3.669.068,1.227,1.227,0,0,0,.729-1.154,1.151,1.151,0,0,0-.433-.942,3.13,3.13,0,0,0-1.405-.532l-2.552-.532a7.11,7.11,0,0,1-3.107-1.382,3.5,3.5,0,0,1-1.177-2.787,4.091,4.091,0,0,1,1.542-3.281,6.9,6.9,0,0,1,4.55-1.322,7.007,7.007,0,0,1,4.284,1.2,3.937,3.937,0,0,1,1.641,3.319h-3.425a1.925,1.925,0,0,0-.843-1.3,2.918,2.918,0,0,0-1.7-.463,3.617,3.617,0,0,0-1.754.38,1.243,1.243,0,0,0-.691,1.154,1.02,1.02,0,0,0,.562.911,6.188,6.188,0,0,0,1.739.562l2.362.532a5.634,5.634,0,0,1,2.461,1.154,3.95,3.95,0,0,1,1.154,1.6,4.358,4.358,0,0,1,.311,1.489,3.894,3.894,0,0,1-1.7,3.38A7.464,7.464,0,0,1,823.632,100.222Z" transform="translate(-745.798 -74.016)" fill="#fff"/>
    <path id="Path_4" data-name="Path 4" d="M1001.563,93.692a4.01,4.01,0,0,0,.8,2.658,2.81,2.81,0,0,0,2.286.987,3.68,3.68,0,0,0,1.838-.448,2.4,2.4,0,0,0,1.109-1.481h3.691a4.973,4.973,0,0,1-1.238,2.651,6.507,6.507,0,0,1-2.385,1.679,7.538,7.538,0,0,1-2.917.577,7.707,7.707,0,0,1-3.79-.9,6.435,6.435,0,0,1-2.544-2.575,8.022,8.022,0,0,1-.912-3.912A9,9,0,0,1,998.328,89a6.567,6.567,0,0,1,2.4-2.772,7.695,7.695,0,0,1,7.527-.084,5.756,5.756,0,0,1,2.271,2.605,9.019,9.019,0,0,1,.775,3.843v1.1Zm-.015-2.446h5.924a3.554,3.554,0,0,0-.729-2.256,2.619,2.619,0,0,0-2.2-.927,2.769,2.769,0,0,0-1.625.463,3.041,3.041,0,0,0-1.01,1.2A3.289,3.289,0,0,0,1001.548,91.246Z" transform="translate(-912.496 -74.109)" fill="#fff"/>
    <path id="Path_5" data-name="Path 5" d="M1205.981,26.206a5.18,5.18,0,0,1-2.37-.479,4.318,4.318,0,0,1-1.474-1.238,5.672,5.672,0,0,1-.8-1.549v2.985H1197.9V5h3.311a.806.806,0,0,1,.805.805V13.34a4.287,4.287,0,0,1,1.656-1.587,5.352,5.352,0,0,1,2.711-.661,5.091,5.091,0,0,1,4.238,1.96,8.7,8.7,0,0,1,1.542,5.522,9.039,9.039,0,0,1-1.572,5.56A5.453,5.453,0,0,1,1205.981,26.206Zm-.9-2.962a2.69,2.69,0,0,0,2.187-1.086,5.868,5.868,0,0,0,.889-3.661,5.43,5.43,0,0,0-.843-3.35,2.7,2.7,0,0,0-2.263-1.086q-3.019,0-3.046,4.436a6.589,6.589,0,0,0,.76,3.661A2.615,2.615,0,0,0,1205.085,23.244Z" transform="translate(-1097.676)" fill="#fff"/>
    <path id="Path_6" data-name="Path 6" d="M1407.53,103.641a6.582,6.582,0,0,1-2.613-.547,5.27,5.27,0,0,1-2.089-1.6,4.141,4.141,0,0,1-.828-2.62V88.8h4.1v9.547a2.231,2.231,0,0,0,.661,1.663,2.652,2.652,0,0,0,1.937.646,2.805,2.805,0,0,0,1.914-.623,2.23,2.23,0,0,0,.714-1.762V88.8h4.056v14.56h-3.57v-2.886a3.694,3.694,0,0,1-.957,1.975,3.63,3.63,0,0,1-1.588.927A6.087,6.087,0,0,1,1407.53,103.641Z" transform="translate(-1286.274 -77.435)" fill="#fff"/>
    <path id="Path_7" data-name="Path 7" d="M1595.9,103.36v-1.906a1.132,1.132,0,0,1,.235-.691l6.927-9.084h-6.8V88.8h11.765v2.294l-7.178,9.388h7.216v2.871H1595.9Z" transform="translate(-1465.446 -77.435)" fill="#fff"/>
    <path id="Path_8" data-name="Path 8" d="M1769.2,103.36v-1.906a1.135,1.135,0,0,1,.236-.691l6.927-9.084h-6.8V88.8h11.765v2.294l-7.178,9.388h7.216v2.871H1769.2Z" transform="translate(-1625.584 -77.435)" fill="#fff"/>
    <path id="Path_9" data-name="Path 9" d="M12.582,124.1H29.74l-1.929,3.509A2.3,2.3,0,0,1,25.8,128.8H10Z" transform="translate(0 -110.054)" fill="#85e6c4"/>
    <path id="Path_10" data-name="Path 10" d="M104.682,216.1H121.84l-1.929,3.509A2.3,2.3,0,0,1,117.9,220.8H102.1Z" transform="translate(-85.105 -195.066)" fill="#6d44e5"/>
    <path id="Path_11" data-name="Path 11" d="M104.682,32H121.84l-1.929,3.509A2.3,2.3,0,0,1,117.9,36.7H102.1Z" transform="translate(-85.105 -24.949)" fill="#517ce3"/>
  </g>
</svg>
