<svg width="179" height="37" viewBox="0 0 179 37" fill="none" xmlns="http://www.w3.org/2000/svg">
<path d="M11.5526 9.77451L10.0688 15.1101L18.5618 9.74414L13.0072 29.9911L18.6485 29.9957L26.8541 0.0900879" fill="#3395FF"/>
<path d="M2.41207 21.4838L0.0756836 29.9956H11.638L16.3692 12.6802L2.41207 21.4838ZM42.5754 13.9899C42.2927 15.0161 41.7482 15.7699 40.9361 16.2513C40.1259 16.7317 38.9888 16.9729 37.521 16.9729H32.8577L34.495 11.0087H39.1584C40.6243 11.0087 41.6314 11.248 42.1778 11.7358C42.7242 12.2236 42.8561 12.9692 42.5754 14V13.9899ZM47.4036 13.8712C47.9971 11.7174 47.7522 10.0607 46.6669 8.901C45.5835 7.7505 43.6823 7.17065 40.9691 7.17065H30.5618L24.2969 30.0057H29.3531L31.8779 20.8017H35.1941C35.9383 20.8017 36.5243 20.9214 36.952 21.1515C37.3807 21.3908 37.6322 21.805 37.7094 22.4032L38.612 30.0057H44.029L43.151 22.9187C42.972 21.3356 42.2305 20.406 40.9276 20.1299C42.5885 19.6605 43.98 18.8781 45.1011 17.792C46.2144 16.7139 47.0097 15.3627 47.4036 13.8804V13.8712ZM59.6941 21.8326C59.2702 23.3789 58.6201 24.5478 57.7412 25.3669C56.8612 26.1861 55.8099 26.5911 54.5833 26.5911C53.334 26.5911 52.4871 26.1953 52.0396 25.3945C51.5912 24.5938 51.5761 23.4341 51.9925 21.9154C52.4089 20.3968 53.0731 19.2095 53.9869 18.3535C54.9007 17.4975 55.9691 17.0695 57.1957 17.0695C58.4204 17.0695 59.2589 17.4837 59.6828 18.3056C60.1162 19.1312 60.1256 20.3121 59.7017 21.8492L59.6941 21.8326ZM61.9099 13.7515L61.2768 16.0617C61.0036 15.2333 60.4732 14.5707 59.6894 14.0736C58.9037 13.5858 57.9315 13.3373 56.7717 13.3373C55.3492 13.3373 53.9831 13.6963 52.6736 14.4142C51.3641 15.1321 50.2148 16.1445 49.235 17.4515C48.2552 18.7585 47.5392 20.2403 47.0776 21.9062C46.6254 23.5814 46.5312 25.0448 46.8044 26.3149C47.087 27.5943 47.6805 28.5699 48.5944 29.251C49.5176 29.9413 50.6952 30.2818 52.1366 30.2818C53.282 30.2875 54.4145 30.0455 55.4528 29.5731C56.4794 29.1208 57.3925 28.4548 58.1284 27.6219L57.4689 30.0297H62.3583L66.8229 13.7598H61.924L61.9099 13.7515ZM84.3929 13.7515H70.174L69.18 17.3779H77.4535L66.5158 26.6095L65.5812 30.0149H80.259L81.253 26.3886H72.3879L83.4932 17.0189L84.3929 13.7515ZM96.9086 21.805C96.4687 23.4065 95.8158 24.6104 94.9538 25.3945C94.0918 26.1861 93.0479 26.5818 91.8223 26.5818C89.2598 26.5818 88.4176 24.9896 89.2918 21.805C89.7252 20.2219 90.3809 19.0318 91.257 18.2302C92.1332 17.4257 93.1949 17.0244 94.4432 17.0244C95.6679 17.0244 96.4951 17.423 96.9209 18.2256C97.3467 19.0263 97.3429 20.2201 96.9086 21.8031V21.805ZM99.7707 14.3636C98.6449 13.6788 97.2082 13.3364 95.4559 13.3364C93.682 13.3364 92.0399 13.6769 90.5288 14.358C89.024 15.0349 87.7014 16.0452 86.6662 17.3088C85.6017 18.5882 84.8357 20.0884 84.3656 21.8004C83.904 23.5059 83.8475 25.0034 84.2055 26.2855C84.5635 27.5648 85.3171 28.5497 86.4476 29.2308C87.5876 29.9174 89.0384 30.2588 90.819 30.2588C92.5713 30.2588 94.2011 29.9146 95.699 29.2298C97.1969 28.5414 98.4782 27.5639 99.5427 26.2754C100.607 24.9923 101.37 23.4958 101.841 21.7838C102.312 20.0719 102.369 18.5771 102.011 17.2923C101.653 16.0129 100.909 15.0281 99.7877 14.3424L99.7707 14.3636ZM117.226 18.0976L118.479 13.6705C118.055 13.4588 117.499 13.3484 116.802 13.3484C115.681 13.3484 114.607 13.619 113.57 14.1675C112.679 14.6332 111.922 15.2904 111.281 16.1132L111.931 13.7294L110.512 13.7349H107.026L102.532 29.9984H107.49L109.822 21.4966C110.161 20.2606 110.772 19.2877 111.652 18.5974C112.529 17.9043 113.621 17.5573 114.94 17.5573C115.75 17.5573 116.504 17.7387 117.22 18.1004L117.226 18.0976ZM131.022 21.8832C130.598 23.4019 129.957 24.5616 129.081 25.3623C128.205 26.1667 127.15 26.568 125.925 26.568C124.7 26.568 123.862 26.1631 123.419 25.3531C122.967 24.5386 122.957 23.3651 123.381 21.8225C123.805 20.2808 124.455 19.0981 125.35 18.2789C126.245 17.4533 127.301 17.041 128.525 17.041C129.731 17.041 130.541 17.4644 130.975 18.3204C131.408 19.1763 131.417 20.3636 131.001 21.8823L131.022 21.8832ZM134.468 14.3903C133.549 13.6723 132.377 13.3134 130.954 13.3134C129.708 13.3134 128.52 13.5895 127.393 14.1473C126.267 14.7041 125.353 15.4634 124.651 16.4243L124.668 16.3139L125.5 13.7276H120.658L119.424 18.2283L119.386 18.3848L114.299 36.9253H119.264L121.826 27.5924C122.08 28.4226 122.599 29.0743 123.39 29.5455C124.181 30.0149 125.158 30.2478 126.32 30.2478C127.761 30.2478 129.137 29.9072 130.441 29.2262C131.751 28.5432 132.881 27.5602 133.842 26.2901C134.803 25.0199 135.517 23.5473 135.972 21.8814C136.433 20.2127 136.527 18.7244 136.264 17.422C135.995 16.1178 135.401 15.1082 134.483 14.3939L134.468 14.3903ZM150.937 21.8169C150.513 23.354 149.863 24.5321 148.987 25.3421C148.11 26.1575 147.055 26.5634 145.831 26.5634C144.578 26.5634 143.73 26.1677 143.287 25.3669C142.835 24.5662 142.825 23.4065 143.24 21.8878C143.654 20.3692 144.316 19.1818 145.23 18.3259C146.143 17.4699 147.213 17.0428 148.439 17.0428C149.664 17.0428 150.493 17.457 150.926 18.2762C151.36 19.0981 151.363 20.279 150.94 21.8197L150.937 21.8169ZM153.151 13.7313L152.517 16.0414C152.243 15.2085 151.716 14.5458 150.934 14.0534C150.143 13.5619 149.172 13.3171 148.013 13.3171C146.591 13.3171 145.217 13.676 143.906 14.3939C142.596 15.1118 141.447 16.1188 140.467 17.422C139.487 18.7253 138.771 20.2109 138.31 21.8768C137.853 23.5491 137.763 25.0153 138.037 26.291C138.313 27.5612 138.907 28.5423 139.827 29.2271C140.744 29.9082 141.927 30.2524 143.369 30.2524C144.528 30.2524 145.635 30.0168 146.685 29.5437C147.709 29.0892 148.62 28.4225 149.354 27.5897L148.695 29.9993H153.584L158.048 13.7359H153.158L153.151 13.7313ZM178.575 13.7368L178.578 13.7322H175.572C175.476 13.7322 175.392 13.7368 175.304 13.7386H173.745L172.944 14.8247L172.746 15.0824L172.661 15.2113L166.326 23.8335L165.016 13.7368H159.827L162.456 29.0798L156.652 36.9308H161.824L163.228 34.986C163.268 34.9289 163.304 34.8811 163.351 34.8203L164.99 32.5469L165.037 32.4825L172.379 22.3121L178.568 13.7524L178.578 13.7469H178.575V13.7368Z" fill="white"/>
</svg>
